<?xml version="1.0" standalone="no"?>
<!DOCTYPE svg PUBLIC "-//W3C//DTD SVG 1.1//EN" "http://www.w3.org/Graphics/SVG/1.1/DTD/svg11.dtd" >
<svg xmlns="http://www.w3.org/2000/svg">
<metadata>Generated by IcoMoon</metadata>
<defs>
<font id="fairwaysIcons" horiz-adv-x="512">
<font-face units-per-em="512" ascent="480" descent="-32" />
<missing-glyph horiz-adv-x="512" />
<glyph unicode="&#x20;" horiz-adv-x="256" d="" />
<glyph unicode="&#xe600;" glyph-name="debt-analysis-balance" d="M409.51 282.26c-3.916 0-6.162 0-150.716-63.731l19.42 159.421c1.006 8.291-4.896 15.827-13.178 16.833-7.959 0.961-16.024 1.455-23.974 1.455-98.995 0-182.712-74.204-194.703-172.625-13.078-107.484 63.703-205.582 171.179-218.669 7.958-0.97 16.016-1.473 23.983-1.473 98.995 0 182.685 74.231 194.668 172.634 3.979 32.741-0.368 66.156-12.647 96.75-2.308 5.686-7.877 9.404-14.031 9.404zM406.195 179.752c-10.15-83.267-80.941-146.055-164.675-146.055-6.746 0-13.59 0.422-20.327 1.248-90.939 11.094-155.899 94.074-144.815 185.002 10.141 83.276 80.932 146.072 164.685 146.072 1.733 0 3.485-0.036 5.228-0.090l-20.722-170.136c-0.655-5.408 1.635-10.725 6-13.967s10.141-3.88 15.108-1.688c48.982 21.63 123.374 54.263 153.806 67.144 6.503-21.774 8.462-44.841 5.713-67.53zM455.797 344.877c-22.906 53.949-73.162 91.918-131.198 99.122-4.976 0.62-9.503-2.929-10.106-7.896l-19.151-154.229c-0.395-3.207 0.934-6.387 3.557-8.354 1.59-1.203 3.521-1.823 5.435-1.823 1.212 0 2.425 0.233 3.548 0.719l143.126 60.524c2.219 0.934 3.943 2.721 4.86 4.959 0.907 2.245 0.872 4.769-0.072 6.979z" />
<glyph unicode="&#xe601;" glyph-name="debt-analysis-capital" d="M428.733 225.689c-12.405 0-22.456-10.052-22.456-22.456-0.018-82.279-66.964-149.234-149.243-149.234-39.864 0-77.348 15.531-105.535 43.709-28.178 28.178-43.709 65.644-43.709 105.526v0.018c0 39.864 15.531 77.33 43.709 105.517 22.501 22.51 50.958 36.774 81.776 41.688v-12.261l-0.009-27.801c0.009-5.102 2.865-9.782 7.411-12.099s10.006-1.877 14.138 1.123l88.737 64.476c3.521 2.542 5.587 6.62 5.587 10.976 0 4.329-2.066 8.425-5.605 10.976l-87.211 63.345c-2.425 2.389-5.775 3.863-9.486 3.863-7.492 0-13.564-6.072-13.572-13.573 0.009-0.063 0.009-0.117 0.009-0.188v-43.52c-42.846-5.201-82.531-24.253-113.538-55.26-36.666-36.658-56.859-85.414-56.859-137.27v-0.036c0-51.856 20.193-100.594 56.859-137.261 36.676-36.685 85.441-56.877 137.297-56.877 107.053 0 194.138 87.103 194.156 194.156 0 12.405-10.051 22.465-22.456 22.465zM153.672 181.81c-3.584 0-6.486-2.748-6.486-6.135v-38.813c0-3.396 2.901-6.144 6.486-6.144h42.657c3.566 0 6.476 2.748 6.476 6.144v38.813c0 3.387-2.911 6.135-6.476 6.135h-42.657zM235.7 230.962c-3.566 0-6.458-2.739-6.458-6.135v-87.974c0-3.396 2.883-6.144 6.458-6.144h42.649c3.575 0 6.503 2.748 6.503 6.144v87.974c0 3.395-2.901 6.135-6.503 6.135h-42.649zM311.278 309.8v-172.939c0-3.396 2.892-6.144 6.476-6.144h42.658c3.566 0 6.486 2.748 6.486 6.144v172.939c0 3.387-2.892 6.135-6.486 6.135h-42.658c-3.575-0.009-6.476-2.748-6.476-6.135z" />
<glyph unicode="&#xe602;" glyph-name="debt-analysis-interest" d="M428.733 225.679c-12.405 0-22.456-10.052-22.456-22.456-0.018-82.298-66.964-149.243-149.243-149.243-39.855 0-77.348 15.522-105.535 43.717-28.178 28.187-43.709 65.653-43.709 105.517v0.018c0 39.873 15.531 77.348 43.717 105.517 22.492 22.51 50.948 36.774 81.776 41.688v-12.261l-0.009-27.8c0.009-5.111 2.865-9.782 7.411-12.1s10.006-1.877 14.138 1.123l88.738 64.476c3.512 2.551 5.578 6.629 5.578 10.976 0 4.339-2.066 8.425-5.596 10.977l-87.211 63.353c-2.443 2.399-5.793 3.872-9.494 3.872-7.492 0-13.554-6.072-13.564-13.563 0.009-0.063 0.009-0.117 0.009-0.189v-43.52c-42.856-5.21-82.54-24.262-113.547-55.269-36.666-36.658-56.859-85.414-56.859-137.27v-0.036c0-51.856 20.193-100.594 56.859-137.261 36.675-36.685 85.441-56.877 137.297-56.877 107.062 0 194.138 87.103 194.156 194.156 0 12.405-10.051 22.456-22.456 22.456zM313.183 153.156l67.557 96.328c-4.384 1.671-8.12 4.626-10.752 8.39l-67.701-96.526c4.401-1.59 8.183-4.474 10.896-8.192zM286.316 161.267l-45.792 67.233c-2.668-3.755-6.423-6.665-10.806-8.318l45.793-67.225c2.659 3.755 6.423 6.665 10.806 8.309zM174.601 179.788l34.834 42.388c-3.935 2.452-7.087 6.018-8.992 10.258l-34.483-42.092c3.845-2.56 6.871-6.216 8.641-10.555zM221.606 225.518c1.275 0 2.488 0.171 3.674 0.449 4.707 1.078 8.587 4.186 10.77 8.353 1.203 2.273 1.958 4.823 1.958 7.581 0 9.046-7.347 16.384-16.402 16.384-9.036 0-16.384-7.339-16.384-16.384 0-1.626 0.315-3.153 0.745-4.626 1.357-4.608 4.626-8.363 8.938-10.294 2.057-0.934 4.321-1.464 6.701-1.464zM294.418 123.136c9.046 0 16.384 7.32 16.384 16.384 0 2.839-0.772 5.462-2.039 7.788-0.557 1.006-1.212 1.949-1.94 2.803-0.027 0.045-0.063 0.081-0.081 0.099-0.692 0.817-1.491 1.554-2.317 2.219-0.108 0.072-0.188 0.144-0.26 0.188-0.808 0.611-1.68 1.141-2.587 1.599-0.152 0.054-0.26 0.152-0.413 0.207-1.024 0.476-2.111 0.863-3.26 1.096-1.132 0.243-2.291 0.395-3.494 0.395-2.479 0-4.815-0.593-6.925-1.59-0.117-0.054-0.207-0.135-0.315-0.188-0.934-0.467-1.824-0.997-2.659-1.644-0.081-0.063-0.161-0.135-0.216-0.188-0.863-0.683-1.644-1.437-2.336-2.281-0.036-0.018-0.036-0.036-0.081-0.081-0.692-0.836-1.293-1.743-1.815-2.731-0.027-0.036-0.072-0.090-0.099-0.144l0.018-0.018c-1.221-2.264-1.958-4.805-1.958-7.563 0.009-9.019 7.348-16.348 16.393-16.348zM385.078 255.277c1.276-0.305 2.551-0.521 3.925-0.521 9.036 0 16.375 7.33 16.375 16.384-0.009 9.046-7.339 16.384-16.393 16.384s-16.366-7.339-16.366-16.384c0-2.659 0.683-5.129 1.805-7.356 2.12-4.204 5.983-7.348 10.653-8.507zM160.499 185.6c-2.219 1.123-4.698 1.815-7.365 1.815-9.046 0-16.384-7.32-16.384-16.375s7.339-16.375 16.384-16.375c9.046 0 16.393 7.32 16.393 16.375 0 1.339-0.207 2.632-0.521 3.88-1.141 4.68-4.293 8.515-8.506 10.68z" />
<glyph unicode="&#xe603;" glyph-name="debt-analysis-overall" d="M55.817 138.505h60.901c5.093 0 9.252 4.141 9.252 9.261v260.105c0 5.12-4.15 9.252-9.252 9.252h-60.901c-5.111 0-9.261-4.132-9.261-9.252v-260.096c0-5.129 4.15-9.27 9.261-9.27zM172.939 138.505h60.901c5.102 0 9.261 4.141 9.261 9.261v145.309c0 5.111-4.159 9.243-9.261 9.243h-60.901c-5.102 0-9.225-4.132-9.225-9.243v-145.3c0-5.129 4.123-9.27 9.225-9.27zM290.079 138.505h60.91c5.093 0 9.234 4.141 9.234 9.261v59.32c0 5.12-4.141 9.261-9.234 9.261h-60.91c-5.093 0-9.234-4.141-9.234-9.261v-59.32c0-5.12 4.141-9.261 9.234-9.261zM463.782 99.638l-59.697 43.341c-1.967 1.437-4.599 1.644-6.755 0.539-2.165-1.105-3.548-3.341-3.548-5.784v-28.232h-333.734c-8.362 0.018-15.136-6.755-15.136-15.118 0-8.353 6.773-15.144 15.136-15.144h333.752v-28.214c0-2.434 1.365-4.671 3.557-5.776 0.934-0.485 1.94-0.719 2.928-0.719 1.348 0 2.704 0.422 3.827 1.248l59.688 43.349c1.688 1.212 2.668 3.162 2.668 5.228-0.009 2.093-1.015 4.069-2.686 5.281z" />
<glyph unicode="&#xe604;" glyph-name="debt-analysis-profile" d="M162.493 233.010h60.901c5.102 0 9.225-4.132 9.225-9.243v-145.309c0-5.102-4.123-9.261-9.225-9.261h-60.901c-5.102 0-9.261 4.159-9.261 9.261v145.309c0 5.111 4.159 9.243 9.261 9.243zM33.343 137.786v-59.329c0-5.102 4.132-9.261 9.234-9.261h60.919c5.093 0 9.243 4.159 9.243 9.261v59.329c0 5.12-4.15 9.261-9.243 9.261h-60.919c-5.102 0.009-9.234-4.132-9.234-9.261zM392.991 223.767v-145.309c0-5.102 4.159-9.261 9.261-9.261h60.901c5.102 0 9.225 4.159 9.225 9.261v145.309c0 5.111-4.123 9.243-9.225 9.243h-60.901c-5.102 0-9.261-4.132-9.261-9.243zM108.634 266.083c3.665-3.251 6.674-7.15 8.91-11.569l43.681 35.876c-3.773 3.135-6.899 6.943-9.27 11.282l-43.322-35.589zM185.856 344.194c-13.321 0-24.145-10.806-24.145-24.136 0-3.171 0.655-6.18 1.769-8.947 1.851-4.662 5.093-8.596 9.243-11.291 3.791-2.461 8.282-3.925 13.132-3.925 3.997 0 7.707 1.069 11.040 2.803 4.428 2.291 8.012 5.893 10.294 10.321 1.733 3.314 2.803 7.034 2.803 11.030 0 13.339-10.815 24.145-24.136 24.145zM322.479 215.628c-3.171 1.545-6.683 2.479-10.42 2.479-4.024 0-7.734-1.078-11.048-2.803-4.447-2.3-8.039-5.892-10.312-10.321-1.716-3.305-2.793-7.015-2.793-11.031 0-13.33 10.806-24.136 24.154-24.136 13.312 0 24.118 10.797 24.118 24.136 0 4.248-1.185 8.174-3.108 11.632-2.408 4.375-6.090 7.887-10.591 10.043zM207.584 288.009l65.509-65.446v20.642l-55.179 55.144c-2.775-4.060-6.27-7.563-10.33-10.339zM415.582 328.826c-4.168 2.623-7.761 6.018-10.644 9.988l-52.421-81.587v-26.516l63.066 98.116zM301.011 215.314c-4.447-2.3-8.039-5.892-10.312-10.321-1.716-3.305-2.793-7.015-2.793-11.031 0-13.33 10.806-24.136 24.154-24.136 13.312 0 24.118 10.797 24.118 24.136 0 4.248-1.185 8.174-3.108 11.632-2.416 4.365-6.090 7.877-10.591 10.034-3.171 1.545-6.683 2.479-10.42 2.479-4.024 0.009-7.734-1.069-11.048-2.793zM415.582 328.826c-4.168 2.623-7.761 6.018-10.644 9.988l-72.129-112.262c4.141-2.65 7.707-6.054 10.591-10.034l72.183 112.308zM303.293 225.743c2.875 0.827 5.803 1.357 8.776 1.357 3.189 0 6.315-0.655 9.387-1.599l3.8 5.919 27.271 42.442v64.692c0 5.12-4.15 9.252-9.261 9.252h-60.901c-5.093 0-9.252-4.132-9.252-9.252v-82.647l30.181-30.163zM344.262 201.274c0.566-2.399 0.898-4.832 0.898-7.303 0-18.262-14.848-33.118-33.101-33.118-18.271 0-33.137 14.848-33.137 33.118 0 2.964 0.53 5.875 1.348 8.749l-7.177 7.159v-131.423c0-5.102 4.159-9.261 9.252-9.261h60.901c5.111 0 9.261 4.159 9.261 9.261v135.653l-1.572-2.443-6.674-10.392zM217.923 298.348c-2.785-4.069-6.279-7.563-10.33-10.339l72.417-72.344c2.757 4.060 6.261 7.554 10.312 10.33l-72.399 72.354zM436.179 385.649c-13.33 0-24.136-10.797-24.136-24.145 0-4.312 1.221-8.291 3.18-11.785 2.452-4.329 6.153-7.833 10.671-9.979 3.135-1.482 6.593-2.381 10.285-2.381 13.321 0 24.145 10.815 24.145 24.145-0.009 13.348-10.824 24.145-24.145 24.145zM97.208 256.696c-3.979 2.892-8.838 4.653-14.112 4.653-13.339 0-24.154-10.815-24.154-24.136 0-13.339 10.815-24.154 24.154-24.154 13.321 0 24.118 10.815 24.118 24.154 0 2.703-0.548 5.255-1.365 7.698-1.635 4.769-4.644 8.883-8.641 11.785z" />
<glyph unicode="&#xe605;" glyph-name="debt-analysis-risks" d="M296.565 296.911h56.984v-34.897c0-5.066 2.839-9.701 7.348-12 1.931-0.979 4.024-1.473 6.126-1.473 2.803 0 5.56 0.871 7.923 2.569l91.325 66.326c3.494 2.533 5.542 6.584 5.542 10.905 0 4.303-2.057 8.371-5.542 10.904l-91.342 66.327c-4.105 2.964-9.531 3.395-14.031 1.105-4.509-2.3-7.348-6.944-7.348-12.010v-34.888h-57.002c-2.659 0-5.524-0.18-8.488-0.476-0.755-0.072-1.527-0.197-2.3-0.296-2.372-0.269-4.788-0.647-7.285-1.132-0.772-0.162-1.545-0.332-2.336-0.512-2.757-0.593-5.542-1.32-8.408-2.183-0.521-0.153-1.015-0.296-1.545-0.467-23.732-7.491-49.996-24.387-67.054-56.302-0.126-0.233-0.233-0.476-0.359-0.7-6.827-12.944-12.054-28.367-15.018-46.601 0-0.018 0-0.018 0-0.036v-0.009c-0.566-3.494-1.078-7.042-1.473-10.743-0.548-4.734-0.988-9.594-1.177-14.758-2.191-59.203-31.627-63.91-36.702-64.242h-86.016c-17.354 0-31.439-14.067-31.439-31.438 0-17.363 14.085-31.438 31.439-31.438h86.034c2.335 0 4.841 0.18 7.438 0.458 0.755 0.090 1.536 0.207 2.299 0.332 1.967 0.26 3.944 0.593 6.018 1.033 0.871 0.188 1.733 0.386 2.632 0.611 2.183 0.53 4.401 1.185 6.665 1.931 0.737 0.233 1.455 0.458 2.201 0.719 6.216 2.2 12.594 5.21 18.908 9.189 0.279 0.18 0.557 0.386 0.845 0.557 2.821 1.824 5.605 3.853 8.371 6.081 0.575 0.476 1.15 0.952 1.725 1.437 2.542 2.138 5.021 4.464 7.446 6.971 0.521 0.557 1.042 1.042 1.554 1.617 2.839 3.081 5.596 6.351 8.201 9.971 0.009 0.009 0.009 0.009 0.018 0.027h0.009c0.853 1.195 1.653 2.461 2.47 3.728 1.033 1.563 2.039 3.18 3.018 4.832 0.845 1.428 1.689 2.865 2.488 4.375 1.311 2.479 2.578 5.066 3.773 7.761 0.881 1.958 1.679 4.024 2.47 6.099 0.611 1.59 1.213 3.189 1.769 4.841 0.745 2.156 1.473 4.329 2.138 6.602 0.377 1.293 0.683 2.659 1.033 3.97 1.141 4.303 2.129 8.812 2.973 13.563 0.279 1.599 0.557 3.224 0.799 4.877 0.422 2.803 0.827 5.632 1.141 8.578 0 0.018 0 0.018 0 0.036 0.494 4.716 0.934 9.495 1.123 14.579 2.524 68.518 44.706 73.404 52.619 73.692zM58.386 301.402h86.034c0.161 0 6.728-0.207 14.56-5.048 7.105 18.243 16.501 33.666 27.423 46.475-15.064 9.019-30.469 12.477-41.984 12.477h-86.034c-14.875 0-26.948-12.073-26.948-26.948s12.073-26.957 26.948-26.957zM466.252 140.786l-91.325 66.317c-4.105 2.982-9.531 3.387-14.031 1.105-4.509-2.317-7.348-6.944-7.348-12.010v-39.361h-56.616c-3.979 0.108-15 1.123-26.337 8.353-5.911-19.025-14.318-34.95-24.216-48.245 17.938-10.177 36.424-14.003 50.176-14.003h56.984v-39.415c0-5.048 2.839-9.71 7.348-12.010 1.931-0.979 4.024-1.464 6.126-1.464 2.803 0 5.578 0.872 7.923 2.569l91.334 66.353c3.485 2.533 5.533 6.584 5.533 10.896 0 4.329-2.057 8.38-5.551 10.913z" />
<glyph unicode="&#xe606;" glyph-name="debt-analysis" d="M201.548 34.855l-19.367-59.041c0-4.291 4.291-7.808 9.571-7.808h127.37c5.281 0 9.591 3.488 9.591 7.808l-19.386 59.041h-107.777zM463.976 428.533h-417.099c-19.191 0-34.748-15.557-34.748-34.737v-300.182c0-19.19 15.557-34.748 34.748-34.748h417.099c19.211 0 34.767 15.557 34.767 34.748v300.192c0 19.181-15.557 34.728-34.767 34.728zM456.825 103.458h-404.501v291.386h404.501v-291.386zM274.235 198.687c2.272 3.36 5.183 6.269 8.571 8.571l-60.188 60.118c-2.313-3.38-5.222-6.28-8.571-8.571l60.187-60.119zM326.909 199.392l60.001 63.459c-3.459 2.214-6.435 5.016-8.846 8.307l-59.942-63.44c3.429-2.204 6.397-5.025 8.788-8.327zM175.51 260.764c-3.125 2.615-5.72 5.771-7.7 9.365l-35.992-29.555c3.027-2.714 5.514-5.946 7.396-9.62l36.294 29.809zM185.052 268.62c3.145-2.048 6.887-3.263 10.913-3.263 3.33 0 6.398 0.892 9.189 2.313 3.683 1.911 6.651 4.899 8.552 8.601 1.429 2.743 2.332 5.838 2.332 9.168 0 11.069-8.994 20.072-20.072 20.072-11.069 0-20.072-8.993-20.072-20.062 0-2.635 0.559-5.123 1.47-7.444 1.558-3.879 4.251-7.142 7.69-9.385zM300.871 160.57c11.069 0 20.062 8.964 20.062 20.043 0 3.536-1.009 6.817-2.606 9.688-1.999 3.625-5.054 6.534-8.788 8.346-2.645 1.274-5.535 2.058-8.67 2.058-3.341 0-6.416-0.911-9.189-2.351-3.693-1.882-6.681-4.869-8.592-8.571-1.43-2.723-2.292-5.838-2.292-9.168 0-11.079 8.973-20.043 20.072-20.043zM395.462 271.913c2.615-1.215 5.486-1.97 8.571-1.97 11.069 0 20.043 8.994 20.043 20.082s-8.973 20.062-20.043 20.062c-11.098 0-20.082-8.973-20.082-20.062 0-3.595 1.019-6.896 2.655-9.797 2.048-3.643 5.113-6.514 8.855-8.317zM110.572 196.481c11.069 0 20.043 8.993 20.043 20.072 0 2.253-0.441 4.379-1.117 6.387-1.363 3.987-3.879 7.396-7.191 9.834-3.282 2.39-7.338 3.849-11.727 3.849-11.098 0-20.073-8.983-20.073-20.072-0.010-11.079 8.964-20.072 20.062-20.072z" />
<glyph unicode="&#xe607;" glyph-name="debt-backoffice-account-details" d="M459.601 337.209l-25.802 6.8c-1.354 4.317-3.115 8.444-5.184 12.355l13.474 23.137c4.281 7.93 6.132 16.039 0 22.19-6.132 6.141-14.757 4.181-22.199-0.009l-23.499-13.7c-3.775 1.942-7.731 3.604-11.849 4.859l-6.945 26.371c-2.601 8.634-7.035 15.678-15.696 15.678-8.67 0-13.375-7.487-15.696-15.678l-7.089-26.904c-3.838-1.283-7.514-2.817-11.072-4.696l-24.14 14.089c-7.947 4.29-16.067 6.15-22.19 0-6.132-6.132-4.163-14.729 0-22.19l14.278-24.51c-1.707-3.387-3.197-6.909-4.371-10.558l-27.437-7.234c-8.625-2.601-15.678-7.017-15.678-15.696 0-8.661 7.469-13.384 15.678-15.687l27.428-7.225c1.183-3.658 2.664-7.171 4.38-10.576l-14.278-24.475c-4.299-7.974-6.132-16.084 0-22.216 6.123-6.141 14.748-4.163 22.19 0l24.14 14.079c3.54-1.861 7.234-3.405 11.072-4.705l7.089-26.894c2.592-8.652 7.026-15.714 15.696-15.714 8.661 0 13.357 7.496 15.696 15.714l6.945 26.334c4.127 1.3 8.092 2.926 11.858 4.868l23.49-13.691c7.947-4.29 16.067-6.141 22.199 0 6.141 6.141 4.163 14.775 0 22.208l-13.474 23.119c2.077 3.947 3.847 8.065 5.193 12.373l25.802 6.809c8.615 2.574 15.696 6.999 15.696 15.669 0 8.661-7.496 13.375-15.705 15.705zM362.635 290.654c-17.041 0-30.85 13.791-30.85 30.832 0 17.033 13.808 30.868 30.85 30.868 17.033 0 30.85-13.835 30.85-30.868s-13.817-30.832-30.85-30.832zM314.092 156.732l-26.19 6.9c-0.776 3.685-1.752 7.297-2.908 10.846l19.245 19.082c6.204 6.565 10.097 13.935 5.753 21.44-4.326 7.487-13.168 7.821-21.44 5.744l-26.236-7.152c-2.466 2.755-5.084 5.373-7.866 7.866l7.152 26.262c2.068 8.76 1.743 17.114-5.762 21.394-7.514 4.344-15.316 0.216-21.44-5.735l-19.073-19.227c-3.549 1.147-7.161 2.131-10.838 2.899l-6.927 26.199c-2.592 8.615-7.008 15.678-15.669 15.678-8.67 0-13.366-7.478-15.687-15.678l-6.927-26.199c-3.675-0.768-7.297-1.752-10.828-2.899l-19.083 19.227c-6.584 6.196-13.926 10.079-21.44 5.735-7.514-4.308-7.839-13.159-5.753-21.394l7.162-26.253c-2.772-2.493-5.4-5.094-7.866-7.875l-26.245 7.152c-8.787 2.068-17.105 1.743-21.44-5.744-4.335-7.505-0.19-15.326 5.744-21.44l19.227-19.082c-1.147-3.567-2.123-7.161-2.89-10.846l-26.19-6.9c-8.624-2.592-15.696-7.017-15.696-15.705 0-8.661 7.487-13.366 15.696-15.678l26.19-6.918c0.767-3.693 1.743-7.297 2.89-10.846l-19.282-19.082c-6.205-6.565-10.087-13.944-5.744-21.449 4.326-7.523 13.158-7.821 21.44-5.726l26.245 7.125c2.466-2.745 5.103-5.373 7.857-7.857l-7.153-26.253c-2.068-8.778-1.761-17.114 5.753-21.449 7.514-4.326 15.326-0.19 21.431 5.762l19.091 19.245c3.549-1.147 7.153-2.14 10.828-2.917l6.927-26.172c2.592-8.643 7.008-15.696 15.669-15.696s13.375 7.496 15.687 15.696l6.927 26.172c3.675 0.776 7.324 1.761 10.838 2.926l19.073-19.236c6.583-6.214 13.935-10.097 21.449-5.78 7.505 4.335 7.83 13.176 5.753 21.449l-7.153 26.272c2.782 2.466 5.4 5.103 7.866 7.839l26.236-7.125c8.788-2.068 17.114-1.779 21.44 5.726s0.19 15.335-5.753 21.449l-19.264 19.082c1.174 3.567 2.149 7.152 2.926 10.846l26.19 6.918c8.643 2.583 15.687 7.017 15.687 15.678 0.054 8.688-7.414 13.384-15.633 15.705zM181.841 84.654c-31.121 0-56.363 25.242-56.363 56.381s25.242 56.381 56.363 56.381c31.139 0 56.381-25.242 56.381-56.381 0.009-31.139-25.233-56.381-56.381-56.381zM181.841 163.587c-12.454 0-22.541-10.097-22.541-22.55s10.088-22.55 22.541-22.55c12.463 0 22.55 10.097 22.55 22.55s-10.097 22.55-22.55 22.55z" />
<glyph unicode="&#xe608;" glyph-name="debt-backoffice-entity-details" d="M413.163 431.277h-44.605v-31.347h28.962v-370.031h-236.732v370.031h69.657v31.347h-107.263c-0.334 0-0.632-0.072-0.948-0.090-0.216 0.018-0.433 0.072-0.65 0.072-0.189 0.018-0.948 0.036-1.174 0.036-20.157 0-40.576-10.675-40.576-34.499v-363.728c0-23.833 20.419-34.517 40.577-34.517 0.198 0 0.984 0.018 1.174 0.036 0.216 0 0.415 0.072 0.614 0.091 0.334-0.018 0.65-0.127 0.984-0.127h289.971c8.661 0 15.696 7.017 15.696 15.678v401.378c0.009 8.661-7.026 15.669-15.687 15.669zM253.476 184.538c0.768-0.298 1.571-0.442 2.366-0.478 0.082 0 0.189-0.054 0.244-0.054 0.171 0 0.28 0.091 0.442 0.091 0.56 0.036 1.174 0.18 1.698 0.334 0.235 0.091 0.469 0.163 0.65 0.244 0.74 0.316 1.445 0.74 2.041 1.318l38.563 38.536 38.608-38.536c0.56-0.569 1.274-0.993 1.996-1.318 0.244-0.108 0.461-0.18 0.687-0.244 0.551-0.18 1.111-0.298 1.698-0.334 0.18 0 0.28-0.091 0.478-0.091 0.072 0 0.163 0.054 0.226 0.054 0.795 0.036 1.608 0.18 2.348 0.478 0.885 0.37 1.625 0.867 2.221 1.481 1.291 1.255 2.032 2.962 2.032 4.813v252.699c0 1.834-0.704 3.577-2.014 4.849-1.291 1.292-3.017 1.996-4.796 1.996h-86.861c-0.65 0-1.274-0.19-1.861-0.37-0.262-0.072-0.56-0.054-0.786-0.145-2.475-1.038-4.2-3.468-4.2-6.294v-252.708c0-2.755 1.671-5.238 4.218-6.322z" />
<glyph unicode="&#xe609;" glyph-name="debt-backoffice-home-consultant" d="M207.074 64.587l-17.873-54.43c0-3.955 3.956-7.198 8.841-7.198h117.423c4.849 0 8.815 3.215 8.815 7.198l-17.873 54.43h-99.333zM449.008 427.52h-384.526c-17.692 0-32.051-14.341-32.051-32.024v-276.74c0-17.692 14.36-32.034 32.051-32.034h384.508c17.728 0 32.070 14.341 32.070 32.034v276.749c0 17.683-14.341 32.015-32.051 32.015zM442.425 127.832h-372.912v268.63h372.912v-268.63zM145.618 174.758h163.472c3.432 0 6.214 2.791 6.214 6.214v21.882c0 2.592-1.608 4.895-4.001 5.834-10.232 3.892-20.853 8.589-30.363 13.357-16.879 8.48-30.327 17.294-32.015 22.614v5.265c5.852 5.916 10.503 14.17 13.248 23.86 3.639 2.502 6.051 6.764 6.051 11.587 0 3.432-1.274 6.53-3.269 8.941v19.58c0 20.229-11.442 34.065-37.57 34.065-25.44 0-37.56-13.835-37.56-34.065v-19.579c-2.023-2.439-3.26-5.518-3.26-8.941 0-4.822 2.403-9.077 6.042-11.587 2.745-9.663 7.369-17.927 13.257-23.86v-5.265c-2.637-8.327-34.066-25.206-62.396-35.971-2.421-0.939-3.992-3.233-3.992-5.834v-21.882c-0.090-3.432 2.701-6.214 6.141-6.214zM278.745 253.274c2.176-7.667 5.861-14.215 10.503-18.911v-0.198c7.45-4.742 16.274-9.591 26.579-13.52 7.334-2.8 12.228-9.952 12.228-17.782v-21.882c0-2.195-0.442-4.272-1.12-6.214h44.216c2.719 0 4.931 2.195 4.931 4.94v17.349c0 2.050-1.291 3.884-3.197 4.615-22.461 8.553-47.377 21.928-49.472 28.538v4.173c4.651 4.705 8.327 11.244 10.494 18.902 2.872 2.014 4.777 5.382 4.777 9.212 0 2.709-0.976 5.157-2.601 7.099v15.534c0 16.021-9.058 27.012-29.784 27.012-2.267 0-4.326-0.19-6.349-0.478-0.596-0.082-1.183-0.19-1.734-0.271-1.4-0.262-2.755-0.578-3.991-0.957-0.533-0.163-1.084-0.316-1.599-0.496-1.599-0.587-3.098-1.264-4.443-2.059-0.298-0.19-0.551-0.406-0.849-0.578-1.021-0.659-2.005-1.391-2.863-2.185-0.461-0.416-0.876-0.858-1.3-1.31-0.632-0.659-1.228-1.382-1.752-2.122-0.361-0.515-0.731-0.985-1.057-1.508-0.704-1.183-1.327-2.438-1.861-3.757-1.31-3.359-1.969-7.152-1.969-11.289v-15.534c-1.589-1.941-2.592-4.38-2.592-7.099 0.009-3.847 1.914-7.225 4.805-9.221z" />
<glyph unicode="&#xe60a;" glyph-name="debt-backoffice-organization-details" d="M91.394 119.74c6.051 0 10.954 4.949 10.954 10.991l-0.018 21.087h143.694v-23.237c0-6.033 4.895-10.945 10.937-10.945 6.051 0 10.945 4.913 10.945 10.945v23.228h143.694v-21.096c0-6.033 4.904-10.964 10.964-10.964 6.042 0 10.928 4.913 10.928 10.964v32.015c0 6.060-4.886 10.954-10.918 10.954h-154.657v26.461c0 0.027-0.009 0.054-0.009 0.108v5.202c0 6.042-4.886 10.937-10.928 10.937-6.060 0-10.954-4.895-10.954-10.937v-31.745l-154.649-0.036c-6.051 0-10.927-4.904-10.927-10.954v-32.006c0-6.033 4.895-10.973 10.945-10.973zM153.203 242.23h207.525c9.925 0 17.963 8.047 17.963 17.963v157.89c0 9.943-8.065 17.963-17.963 17.963h-207.525c-9.916 0-17.936-8.046-17.936-17.963v-157.872c-0.018-9.943 8.019-17.981 17.936-17.981zM171.167 400.129h171.6v-122.001h-171.6v122.001zM143.179 88.43h-99.938c-6.196 0-11.225-5.031-11.225-11.226v-77.315c0-6.214 5.048-11.226 11.225-11.226h99.938c6.204 0 11.226 5.031 11.226 11.226v77.315c0 6.195-5.030 11.226-11.226 11.226zM131.945 11.115h-77.478v54.855h77.478v-54.855zM305.964 88.43h-99.929c-6.214 0-11.226-5.031-11.226-11.226v-77.315c0-6.214 5.030-11.226 11.226-11.226h99.902c6.214 0 11.226 5.031 11.226 11.226v77.315c0.027 6.195-5.003 11.226-11.199 11.226zM294.73 11.115h-77.451v54.855h77.451v-54.855zM468.759 88.43h-99.929c-6.195 0-11.207-5.031-11.207-11.226v-77.315c0-6.214 5.031-11.226 11.207-11.226h99.929c6.195 0 11.226 5.031 11.226 11.226v77.315c0 6.195-5.022 11.226-11.226 11.226zM457.534 11.115h-77.478v54.855h77.478v-54.855z" />
<glyph unicode="&#xe60b;" glyph-name="debt-backoffice-organization-settings" d="M91.394 119.74c6.051 0 10.954 4.949 10.954 10.991l-0.018 21.087h143.694v-23.237c0-6.033 4.895-10.945 10.937-10.945 6.051 0 10.945 4.913 10.945 10.945v23.228h143.694v-21.096c0-6.033 4.904-10.964 10.964-10.964 6.042 0 10.928 4.913 10.928 10.964v32.015c0 6.060-4.886 10.954-10.918 10.954h-154.657v26.461c0 0.027-0.009 0.054-0.009 0.108v5.202c0 6.042-4.886 10.937-10.928 10.937-6.060 0-10.954-4.895-10.954-10.937v-31.745l-154.649-0.036c-6.051 0-10.927-4.904-10.927-10.954v-32.006c0-6.033 4.895-10.973 10.945-10.973zM153.203 242.238h207.525c9.925 0 17.963 8.047 17.963 17.963v157.881c0 9.934-8.055 17.963-17.963 17.963h-207.525c-9.916 0-17.936-8.047-17.936-17.963v-157.873c-0.009-9.943 8.029-17.972 17.936-17.972zM143.179 88.43h-99.938c-6.196 0-11.225-5.031-11.225-11.226v-77.315c0-6.214 5.048-11.226 11.225-11.226h99.938c6.204 0 11.226 5.031 11.226 11.226v77.315c0 6.195-5.030 11.226-11.226 11.226zM305.964 88.43h-99.929c-6.214 0-11.226-5.031-11.226-11.226v-77.315c0-6.214 5.030-11.226 11.226-11.226h99.902c6.214 0 11.226 5.031 11.226 11.226v77.315c0.027 6.195-5.003 11.226-11.199 11.226zM468.759 88.43h-99.929c-6.195 0-11.207-5.031-11.207-11.226v-77.315c0-6.214 5.031-11.226 11.207-11.226h99.929c6.195 0 11.226 5.031 11.226 11.226v77.315c0 6.195-5.022 11.226-11.226 11.226z" />
<glyph unicode="&#xe60c;" glyph-name="debt-backoffice-user-details" d="M287.649 224.023c9.067 12.228 16.319 27.283 21.060 44.234 8.291 5.834 13.736 15.642 13.736 26.777 0 7.929-2.827 15.082-7.45 20.709v45.282c0 46.727-26 78.688-85.471 78.688-57.925 0-85.507-31.961-85.507-78.688v-45.282c-4.57-5.627-7.433-12.788-7.433-20.709 0-11.099 5.455-20.88 13.745-26.768 6.214-22.334 16.752-41.407 30.155-55.089v-12.174c-5.988-19.255-77.532-58.197-141.978-83.131-5.473-2.113-9.157-7.469-9.157-13.438v-50.583c0-7.938 6.349-14.387 14.17-14.387h208.925c-13.357 21.277-21.232 46.365-21.232 73.287 0.063 45.671 22.316 86.048 56.436 111.272zM454.21 24.589l-54.132 54.132c-2.89 2.944-7.613 2.944-10.503 0l-0.867-0.858-11.985 12.038c8.715 10.503 13.502 23.589 13.502 37.416 0 15.76-6.123 30.498-17.231 41.615s-25.883 17.231-41.606 17.231c-15.714 0-30.489-6.087-41.588-17.231-11.099-11.118-17.214-25.856-17.214-41.615 0-15.696 6.096-30.453 17.214-41.561 11.099-11.118 25.874-17.24 41.588-17.24 13.844 0 26.958 4.76 37.461 13.483l12.012-12.002-0.867-0.84c-2.908-2.899-2.908-7.586 0-10.512l54.115-54.123c1.454-1.445 3.351-2.176 5.265-2.176 1.906 0 3.802 0.731 5.247 2.176l9.6 9.591c2.917 2.917 2.917 7.604-0.009 10.476zM357.207 101.498c-6.9-6.89-16.067-10.702-25.829-10.702-9.745 0-18.92 3.811-25.802 10.702-6.9 6.909-10.729 16.075-10.729 25.811 0 9.798 3.838 18.974 10.729 25.856 6.89 6.9 16.058 10.711 25.802 10.711 9.762 0 18.938-3.811 25.829-10.711 6.927-6.89 10.729-16.058 10.729-25.856 0.009-9.745-3.802-18.911-10.729-25.811z" />
<glyph unicode="&#xe60d;" glyph-name="debt-calendar" d="M410.935 386.448h-38.32v-35.014c0-13.307-10.82-24.156-24.135-24.156-13.307 0-24.147 10.849-24.147 24.156v35.014h-148.859v-35.014c0-13.307-10.84-24.156-24.147-24.156s-24.126 10.849-24.126 24.156v35.014h-38.32c-25.87 0-46.879-21.021-46.879-46.858v-308.526c0-25.858 21.012-46.888 46.879-46.888h322.034c25.858 0 46.879 21.030 46.879 46.888v308.526c0.021 25.819-21.012 46.858-46.858 46.858zM410.926 14.68h-322.043c-9.026 0-16.382 7.345-16.382 16.382v238.726h354.789v-238.726h0.009c0-9.026-7.336-16.382-16.373-16.382zM151.327 342.545c4.917 0 8.899 3.983 8.899 8.908v55.609c0 4.907-3.962 8.887-8.899 8.887-4.896 0-8.869-3.962-8.869-8.887v-55.628c0-4.907 3.971-8.887 8.869-8.887zM348.48 342.545c4.896 0 8.887 3.983 8.887 8.908v55.609c0 4.907-3.971 8.887-8.887 8.887s-8.899-3.962-8.899-8.887v-55.628c0.021-4.907 3.991-8.887 8.899-8.887zM218.97 219.375h-24.782c-1.921 0-3.504-1.563-3.504-3.504v-24.774c0.009-1.932 1.572-3.493 3.504-3.493h24.782c1.921 0 3.504 1.554 3.504 3.493v24.774c-0.009 1.921-1.572 3.504-3.504 3.504zM263.887 219.375h-24.782c-1.932 0-3.513-1.563-3.513-3.504v-24.774c0.009-1.932 1.572-3.493 3.513-3.493h24.782c1.921 0 3.493 1.554 3.493 3.493v24.774c0 1.921-1.554 3.504-3.493 3.504zM308.825 219.375h-24.794c-1.932 0-3.493-1.563-3.493-3.504v-24.774c0-1.932 1.554-3.493 3.493-3.493h24.794c1.921 0 3.493 1.554 3.493 3.493v24.774c0 1.921-1.563 3.504-3.493 3.504zM353.735 219.375h-24.783c-1.921 0-3.493-1.563-3.493-3.504v-24.774c0-1.932 1.554-3.493 3.493-3.493h24.783c1.941 0 3.513 1.554 3.513 3.493v24.774c-0.009 1.921-1.563 3.504-3.513 3.504zM398.653 219.375h-24.783c-1.921 0-3.513-1.563-3.513-3.504v-24.774c0.009-1.932 1.584-3.493 3.513-3.493h24.783c1.921 0 3.504 1.554 3.504 3.493v24.774c0 1.921-1.563 3.504-3.504 3.504zM129.132 156.433h-24.782c-1.932 0-3.504-1.563-3.504-3.513v-24.764c0.009-1.921 1.563-3.513 3.504-3.513h24.782c1.921 0 3.493 1.584 3.493 3.513v24.764c0 1.941-1.554 3.513-3.493 3.513zM174.050 156.433h-24.782c-1.911 0-3.504-1.563-3.504-3.513v-24.764c0-1.921 1.572-3.513 3.504-3.513h24.782c1.921 0 3.504 1.584 3.504 3.513v24.764c0 1.941-1.572 3.513-3.504 3.513zM218.97 156.433h-24.782c-1.921 0-3.504-1.563-3.504-3.513v-24.764c0.009-1.921 1.572-3.513 3.504-3.513h24.782c1.921 0 3.504 1.584 3.504 3.513v24.764c-0.009 1.941-1.572 3.513-3.504 3.513zM263.887 156.433h-24.782c-1.932 0-3.513-1.563-3.513-3.513v-24.764c0.009-1.921 1.572-3.513 3.513-3.513h24.782c1.921 0 3.493 1.584 3.493 3.513v24.764c0 1.941-1.554 3.513-3.493 3.513zM308.825 156.433h-24.794c-1.932 0-3.493-1.563-3.493-3.513v-24.764c0-1.921 1.554-3.513 3.493-3.513h24.794c1.921 0 3.493 1.584 3.493 3.513v24.764c0 1.941-1.563 3.513-3.493 3.513zM353.735 156.433h-24.783c-1.921 0-3.493-1.563-3.493-3.513v-24.764c0-1.921 1.554-3.513 3.493-3.513h24.783c1.941 0 3.513 1.584 3.513 3.513v24.764c-0.009 1.941-1.563 3.513-3.513 3.513zM398.653 156.433h-24.783c-1.921 0-3.513-1.563-3.513-3.513v-24.764c0.009-1.921 1.584-3.513 3.513-3.513h24.783c1.921 0 3.504 1.584 3.504 3.513v24.764c0 1.941-1.563 3.513-3.504 3.513zM129.132 93.49h-24.782c-1.932 0-3.504-1.554-3.504-3.493v-24.774c0.009-1.95 1.563-3.513 3.504-3.513h24.782c1.921 0 3.493 1.554 3.493 3.513v24.774c0 1.932-1.554 3.493-3.493 3.493zM174.050 93.49h-24.782c-1.911 0-3.504-1.554-3.504-3.493v-24.774c0-1.95 1.572-3.513 3.504-3.513h24.782c1.921 0 3.504 1.554 3.504 3.513v24.774c0 1.932-1.572 3.493-3.504 3.493zM218.97 93.49h-24.782c-1.921 0-3.504-1.554-3.504-3.493v-24.774c0.009-1.95 1.572-3.513 3.504-3.513h24.782c1.921 0 3.504 1.554 3.504 3.513v24.774c-0.009 1.932-1.572 3.493-3.504 3.493zM263.887 93.49h-24.782c-1.932 0-3.513-1.554-3.513-3.493v-24.774c0.009-1.95 1.572-3.513 3.513-3.513h24.782c1.921 0 3.493 1.554 3.493 3.513v24.774c0 1.932-1.554 3.493-3.493 3.493zM308.825 93.49h-24.794c-1.932 0-3.493-1.554-3.493-3.493v-24.774c0-1.95 1.554-3.513 3.493-3.513h24.794c1.921 0 3.493 1.554 3.493 3.513v24.774c0 1.932-1.563 3.493-3.493 3.493z" />
<glyph unicode="&#xe60e;" glyph-name="debt-common-style-guide" d="M454.815 256.67c-89.859-70.65-66.785 48.317-156.969 48.317-20.889 0-33.406-15.868-40.902-27.066-7.496 11.199-20.031 27.066-40.92 27.066-90.157 0-67.11-118.966-156.952-48.317-89.868 70.651 55.776-221.063 197.871-65.746 142.096-155.317 287.721 136.397 197.871 65.746z" />
<glyph unicode="&#xe60f;" glyph-name="debt-common-unauthorized" d="M207.823 64.587l-17.873-54.43c0-3.955 3.956-7.198 8.841-7.198h117.422c4.849 0 8.824 3.215 8.824 7.198l-17.873 54.43h-99.342zM449.757 427.52h-384.526c-17.692 0-32.051-14.341-32.051-32.024v-276.74c0-17.692 14.36-32.034 32.051-32.034h384.517c17.728 0 32.070 14.341 32.070 32.034v276.749c-0.009 17.683-14.351 32.015-32.060 32.015zM443.174 127.832h-372.912v268.63h372.912v-268.63zM169.775 253.482l26.19-17.637 31.889 24.031 21.096-22.135 37.434 0.009c7.848-20.781 27.87-35.591 51.378-35.591 30.363 0 54.973 24.637 54.973 54.99 0.009 30.345-24.61 54.981-54.972 54.972-22.081 0-41.074-13.032-49.825-31.825l-157.863 0.018-7.794-19.263 23.237-21.62 24.257 14.053z" />
<glyph unicode="&#xe610;" glyph-name="debt-dashboard" d="M222.3 205.166h-183.15c-6.927 0-12.544-5.618-12.544-12.544v-111.48c0-6.945 5.626-12.563 12.544-12.563h183.142c6.936 0 12.553 5.618 12.553 12.563v111.48c0 6.927-5.618 12.544-12.544 12.544zM209.766 93.695h-158.071v86.382h158.071v-86.382zM464.786 205.166h-183.142c-6.954 0-12.581-5.618-12.581-12.544v-111.48c0-6.945 5.627-12.563 12.581-12.563h183.115c6.945 0 12.553 5.618 12.553 12.563v111.48c0 6.927-5.608 12.544-12.526 12.544zM452.232 93.695h-158.063v86.382h158.063v-86.382zM464.786 379.791h-183.142c-6.954 0-12.581-5.599-12.581-12.553v-111.471c0-6.954 5.627-12.553 12.581-12.553h183.115c6.945 0 12.553 5.6 12.553 12.553v111.471c0 6.927-5.608 12.553-12.526 12.553zM452.232 268.302h-158.063v86.391h158.063v-86.391zM39.159 243.214h183.142c6.927 0 12.535 5.6 12.535 12.553v111.471c0 6.936-5.608 12.553-12.535 12.553h-183.142c-6.927 0-12.553-5.599-12.553-12.553v-111.471c0-6.945 5.626-12.553 12.553-12.553zM51.685 354.693h158.063v-86.391h-158.063v86.392z" />
<glyph unicode="&#xe611;" glyph-name="debt-deal-vanilla-loan-details" d="M126.147 283.764h185.318c3.477 0 6.276 2.817 6.276 6.267s-2.817 6.276-6.276 6.276h-185.318c-3.459 0-6.258-2.817-6.258-6.276-0.018-3.459 2.808-6.267 6.258-6.267zM126.147 345.491h74.137c3.495 0 6.276 2.817 6.276 6.268 0 3.468-2.809 6.276-6.276 6.276h-74.136c-3.459 0-6.258-2.817-6.258-6.276s2.808-6.268 6.258-6.268zM366.671 19.531h-294.432v387.931h234.998v-49.238c0-5.193 4.2-9.401 9.401-9.401h50.032v-79.962h31.347v89.516c0 4.19-1.698 8.2-4.669 11.135l-65.711 64.789c-2.926 2.89-6.882 4.507-11 4.507h-260.077c-8.661 0-15.669-6.999-15.669-15.651v-419.296c0-8.661 7.008-15.66 15.669-15.66h325.743c8.679 0 15.687 6.999 15.687 15.66v32.322h-31.329l0.009-16.654zM466.601 238.391h-280.714c-10.91 0-19.76-8.841-19.76-19.76v-130.563c0-10.909 8.841-19.751 19.76-19.751h280.714c10.909 0 19.76 8.841 19.76 19.751v130.563c-0.018 10.918-8.851 19.76-19.76 19.76z" />
<glyph unicode="&#xe612;" glyph-name="debt-filter-list" d="M321.11 349.393h-179.629c-7.776 0-14.115-6.331-14.115-14.125l0.009-330.746c-0.009-5.69 3.441-10.846 8.715-13.041 5.265-2.185 11.334-0.976 15.389 3.062l79.835 79.681 79.826-79.673c4.028-4.046 10.097-5.265 15.389-3.070 1.734 0.731 3.288 1.761 4.579 3.070 2.601 2.592 4.136 6.168 4.127 9.988l0.009 330.728c0.018 3.73-1.481 7.324-4.118 9.971-2.682 2.673-6.259 4.154-10.015 4.154zM431.118 435.964c-2.673 2.673-6.25 4.155-10.007 4.155h-179.629c-7.785 0-14.125-6.331-14.125-14.125v-47.675h28.908v32.892h150.052v-280.289l-36.151 36.079v-40.856l40.965-40.865c2.692-2.709 6.295-4.146 9.971-4.146 1.825 0 3.658 0.352 5.418 1.084 1.743 0.731 3.288 1.752 4.588 3.062 2.592 2.592 4.136 6.168 4.127 9.988v330.728c0.018 3.739-1.481 7.324-4.118 9.971z" />
<glyph unicode="&#xe613;" glyph-name="debt-filter" d="M381.916 433.707c-3.332 3.341-7.803 5.193-12.499 5.193h-224.423c-9.726 0-17.647-7.911-17.647-17.647l0.018-413.209c-0.018-7.108 4.308-13.555 10.882-16.31 6.583-2.736 14.161-1.228 19.227 3.82l99.74 99.559 99.731-99.541c5.048-5.058 12.616-6.584 19.227-3.829 2.176 0.921 4.118 2.212 5.726 3.829 3.242 3.242 5.166 7.704 5.157 12.499l0.009 413.191c0.018 4.66-1.851 9.139-5.147 12.445z" />
<glyph unicode="&#xe614;" glyph-name="debt-line-chart-analytics" d="M3753.153-20436.879l-55.406 200.644c-1.834 6.665-7.902 11.289-14.838 11.289h-141.905c-6.918 0-12.986-4.624-14.838-11.289l-55.387-200.644c-1.291-4.624-0.334-9.591 2.574-13.402 2.908-3.829 7.441-6.078 12.237-6.078h173.659v-54.376c-4.308-2.249-7.27-6.692-7.27-11.885 0-7.406 5.997-13.411 13.42-13.411 7.405 0 13.42 6.005 13.42 13.411 0 5.193-2.962 9.636-7.27 11.885v54.376h66.749c4.796 0 9.329 2.249 12.237 6.078 2.935 3.811 3.892 8.787 2.619 13.402zM3692.139-20632.032h-64.789v157.421h-30.778v-157.421h-62.017c-8.48 0-15.38-6.891-15.38-15.38 0-8.499 6.9-15.398 15.38-15.398h157.584c8.499 0 15.38 6.9 15.38 15.398 0 8.489-6.872 15.38-15.38 15.38zM420.181 270.551l-88.695-117.955c7.857-2.836 14.594-7.993 19.435-14.622l88.423 117.612c-7.785 2.981-14.45 8.237-19.164 14.964zM212.312 270.307c-4.76-6.692-11.46-11.894-19.273-14.829l90.708-117.874c4.741 6.701 11.452 11.885 19.272 14.838l-90.709 117.865zM140.822 277.333l-52.48-45.923c6.855-4.57 12.255-11.108 15.416-18.821l53.103 46.456c-7.008 4.353-12.635 10.702-16.039 18.288zM204.328 280.683c2.149 4.055 3.486 8.615 3.486 13.529 0 16.13-13.104 29.225-29.243 29.225-16.12 0-29.215-13.095-29.215-29.225 0-2.89 0.56-5.626 1.327-8.255 2.429-8.2 8.255-14.901 15.94-18.36 3.667-1.661 7.703-2.61 11.948-2.61 2.267 0 4.434 0.298 6.548 0.795 8.39 1.923 15.308 7.468 19.209 14.901zM343.065 127.553c-0.976 1.797-2.149 3.477-3.459 5.031-0.036 0.054-0.091 0.127-0.127 0.163-1.255 1.445-2.655 2.772-4.146 3.955-0.171 0.127-0.307 0.244-0.469 0.37-1.427 1.093-2.981 2.014-4.615 2.817-0.244 0.108-0.478 0.262-0.731 0.389-1.834 0.849-3.784 1.517-5.825 1.959-0.009 0-0.009 0-0.009 0-2.014 0.442-4.082 0.704-6.223 0.704-4.425 0-8.589-1.057-12.363-2.817-0.19-0.108-0.37-0.226-0.56-0.316-1.68-0.831-3.26-1.797-4.724-2.926-0.144-0.108-0.28-0.244-0.406-0.334-1.517-1.219-2.917-2.556-4.154-4.037-0.054-0.054-0.082-0.091-0.135-0.144-1.247-1.499-2.303-3.143-3.242-4.868-0.054-0.072-0.127-0.163-0.18-0.244l0.036-0.036c-2.168-4.019-3.486-8.57-3.486-13.493 0-16.139 13.077-29.224 29.216-29.224 16.13 0 29.224 13.086 29.224 29.224 0 5.031-1.391 9.7-3.622 13.827v0zM454.092 323.446c-16.147 0-29.216-13.095-29.216-29.225 0-4.741 1.238-9.158 3.224-13.122 3.802-7.496 10.666-13.122 19.010-15.181 2.248-0.56 4.57-0.93 6.972-0.93 16.12 0 29.216 13.068 29.216 29.225 0.018 16.13-13.086 29.233-29.207 29.233zM78.606 222.902c-3.956 2.032-8.381 3.26-13.14 3.26-16.139 0-29.224-13.086-29.224-29.224s13.086-29.224 29.224-29.224c16.13 0 29.225 13.086 29.225 29.224 0 2.402-0.371 4.696-0.921 6.918-2.032 8.363-7.65 15.236-15.163 19.046z" />
<glyph unicode="&#xe615;" glyph-name="debt-market" d="M445.892 32.88h-386.964c-4.407 0-8.047-4.471-8.047-9.979v-34.905c0-5.527 3.639-9.998 8.047-9.998h386.964c4.471 0 8.038 4.471 8.038 9.998v34.905c-0.009 5.509-3.567 9.979-8.038 9.979zM482.514 373.46l-218.236 91.819c-3.387 1.427-7.198 1.409-10.566-0.027l-215.256-91.819c-5.925-2.529-9.248-8.868-7.956-15.172s6.837-10.837 13.276-10.837h433.493c6.448 0 12.002 4.543 13.284 10.865 1.264 6.331-2.086 12.679-8.038 15.172zM60.273 162.936c4.398-6.060 12.879-7.397 18.92-2.998l81.379 59.135 135.006-118.154c2.574-2.24 5.753-3.351 8.923-3.351 3.577 0 7.161 1.418 9.826 4.209l124.584 130.969c5.147 5.418 4.94 13.989-0.478 19.155-5.455 5.157-14.007 4.949-19.155-0.478l-115.625-121.559-133.381 116.718c-4.768 4.163-11.768 4.488-16.888 0.758l-90.121-65.475c-6.051-4.407-7.397-12.878-2.989-18.929zM74.733 68.589c0-5.491 3.594-9.971 8.074-9.971h39.854c4.453 0 8.083 4.471 8.083 9.971v100.887l-38.255-27.798c-5.265-3.829-11.352-6.024-17.746-6.638v-66.451zM122.651 313.539h-39.854c-4.48 0-8.074-4.471-8.074-9.952v-85.488l56.002 40.685v44.803c0.009 5.482-3.621 9.952-8.074 9.952zM230.528 303.587c0 5.473-3.621 9.952-8.037 9.952h-39.927c-4.398 0-7.993-4.471-7.993-9.952v-33.632c3.829-1.508 7.423-3.631 10.576-6.385l45.382-39.709v79.726zM182.564 58.618h39.927c4.416 0 8.037 4.471 8.037 9.971v59.262l-55.957 48.976v-108.228c-0.009-5.509 3.585-9.979 7.993-9.979zM382.133 58.618h39.935c4.407 0 8.046 4.471 8.046 9.971v122.154l-55.993-58.873v-63.29c0-5.491 3.594-9.962 8.010-9.962zM430.115 278.11v25.476c0 5.473-3.63 9.952-8.046 9.952h-39.935c-4.416 0-8.019-4.471-8.019-9.952v-66.885l28.782 30.254c6.783 7.152 16.328 11.252 26.181 11.252 0.361 0 0.695-0.090 1.038-0.099zM330.313 303.587c0 5.473-3.586 9.952-8.055 9.952h-39.873c-4.452 0-8.074-4.471-8.074-9.952v-118.046l27.906-24.42 28.087 29.531v112.934zM280.704 83.932l-6.385 5.59v-20.934c0-5.491 3.613-9.971 8.074-9.971h39.873c4.462 0 8.055 4.471 8.055 9.971v17.303c-6.774-6.918-16.139-10.901-25.811-10.901-8.724 0-17.168 3.152-23.806 8.941z" />
<glyph unicode="&#xe616;" glyph-name="debt-operations-logs-log" d="M81.027 342.212h351.788v-220.602h31.356v236.254c0 8.661-7.017 15.678-15.669 15.678h-383.154c-8.661 0-15.678-7.017-15.678-15.678v-236.254h31.365v220.602zM281.202 95.149v-5.952c0-4.705-3.829-8.498-8.517-8.498h-31.518c-4.696 0-8.517 3.811-8.517 8.498v5.952h-201.042v-28.548c0-8.661 7.017-15.66 15.669-15.66h419.277c8.661 0 15.678 6.999 15.678 15.66v28.548h-201.032zM150.792 239.213c-0.966 0.921-2.267 1.363-3.901 1.363-1.698 0-3.071-0.46-4.091-1.363-1.020-0.894-1.544-1.915-1.544-3.043v-23.761c0-2.944 0.271-5.69 0.84-8.219 0.56-2.538 1.544-4.733 2.917-6.584 1.363-1.861 3.215-3.288 5.536-4.326 2.312-1.029 5.193-1.545 8.643-1.545 3.577 0 6.494 0.632 8.787 1.923 2.285 1.283 4.118 3.017 5.491 5.211 1.31-2.195 3.097-3.947 5.346-5.211 2.258-1.291 5.229-1.923 8.923-1.923 3.441 0 6.303 0.515 8.597 1.545 2.276 1.029 4.118 2.457 5.491 4.326 1.355 1.834 2.348 4.028 2.899 6.584 0.56 2.529 0.849 5.274 0.849 8.219v23.761c0 1.129-0.515 2.149-1.499 3.043-1.002 0.921-2.393 1.363-4.136 1.363-1.571 0-2.827-0.46-3.811-1.363-0.966-0.894-1.436-1.915-1.436-3.043v-24.14c0-3.441-0.632-5.978-1.879-7.622-1.274-1.644-3.269-2.447-6.024-2.447-2.817 0-4.822 0.813-6.014 2.447-1.183 1.644-1.779 4.181-1.779 7.622v24.239c0 1.382-0.587 2.439-1.779 3.197-1.192 0.74-2.411 1.12-3.657 1.12-0.56 0-1.174-0.118-1.825-0.325-0.66-0.216-1.282-0.515-1.825-0.858-0.56-0.334-1.038-0.758-1.409-1.274-0.38-0.488-0.56-1.030-0.56-1.589v-24.52c0-3.441-0.596-5.978-1.788-7.622s-3.197-2.447-6.006-2.447c-2.817 0-4.85 0.813-6.069 2.447-1.228 1.644-1.825 4.181-1.825 7.622v24.14c-0.009 1.138-0.515 2.167-1.463 3.053zM226.5 239.213c-0.966 0.921-2.267 1.363-3.901 1.363-1.698 0-3.043-0.46-4.082-1.363-1.030-0.894-1.554-1.915-1.554-3.043v-23.761c0-2.944 0.28-5.69 0.849-8.219 0.56-2.538 1.526-4.733 2.908-6.584 1.363-1.861 3.215-3.288 5.527-4.326 2.33-1.029 5.193-1.545 8.643-1.545 3.577 0 6.512 0.632 8.797 1.923 2.285 1.283 4.118 3.017 5.482 5.211 1.319-2.195 3.115-3.947 5.364-5.211 2.248-1.291 5.229-1.923 8.913-1.923 3.441 0 6.303 0.515 8.589 1.545s4.118 2.457 5.5 4.326c1.363 1.834 2.357 4.028 2.908 6.584 0.56 2.529 0.849 5.274 0.849 8.219v23.761c0 1.129-0.524 2.149-1.517 3.043-0.993 0.921-2.384 1.363-4.127 1.363-1.563 0-2.845-0.46-3.811-1.363-0.966-0.894-1.445-1.915-1.445-3.043v-24.14c0-3.441-0.623-5.978-1.878-7.622-1.264-1.644-3.26-2.447-6.014-2.447-2.817 0-4.813 0.813-6.014 2.447-1.183 1.644-1.779 4.181-1.779 7.622v24.239c0 1.382-0.578 2.439-1.779 3.197-1.183 0.74-2.411 1.12-3.657 1.12-0.569 0-1.165-0.118-1.825-0.325-0.66-0.216-1.282-0.515-1.825-0.858-0.56-0.334-1.038-0.758-1.409-1.274-0.388-0.488-0.56-1.030-0.56-1.589v-24.52c0-3.441-0.596-5.978-1.779-7.622-1.192-1.644-3.197-2.447-6.006-2.447-2.817 0-4.84 0.813-6.069 2.447-1.21 1.644-1.825 4.181-1.825 7.622v24.14c-0.018 1.138-0.506 2.167-1.472 3.053zM302.199 239.213c-0.957 0.921-2.267 1.363-3.892 1.363-1.698 0-3.062-0.46-4.091-1.363-1.029-0.894-1.553-1.915-1.553-3.043v-23.761c0-2.944 0.28-5.69 0.849-8.219 0.56-2.538 1.526-4.733 2.908-6.584 1.373-1.861 3.206-3.288 5.545-4.326 2.321-1.029 5.184-1.545 8.643-1.545 3.558 0 6.493 0.632 8.778 1.923 2.285 1.283 4.118 3.017 5.491 5.211 1.318-2.195 3.106-3.947 5.365-5.211 2.248-1.291 5.22-1.923 8.913-1.923 3.441 0 6.295 0.515 8.589 1.545 2.285 1.029 4.118 2.457 5.491 4.326 1.373 1.834 2.348 4.028 2.899 6.584 0.569 2.529 0.858 5.274 0.858 8.219v23.761c0 1.129-0.505 2.149-1.517 3.043-0.993 0.921-2.375 1.363-4.118 1.363-1.563 0-2.836-0.46-3.811-1.363-0.966-0.894-1.454-1.915-1.454-3.043v-24.14c0-3.441-0.623-5.978-1.878-7.622s-3.26-2.447-6.005-2.447c-2.817 0-4.822 0.813-6.014 2.447-1.183 1.644-1.779 4.181-1.779 7.622v24.239c0 1.382-0.587 2.439-1.779 3.197-1.192 0.74-2.43 1.12-3.649 1.12-0.56 0-1.183-0.118-1.851-0.325-0.65-0.216-1.255-0.515-1.815-0.858-0.56-0.334-1.029-0.758-1.4-1.274-0.38-0.488-0.56-1.030-0.56-1.589v-24.52c0-3.441-0.596-5.978-1.788-7.622-1.183-1.644-3.188-2.447-5.997-2.447s-4.841 0.813-6.069 2.447c-1.219 1.644-1.834 4.181-1.834 7.622v24.14c-0.009 1.138-0.488 2.167-1.472 3.053zM368.334 201.897c-1.093-0.939-1.644-2.023-1.644-3.197v-2.357c0-1.183 0.542-2.258 1.644-3.197 1.093-0.939 2.583-1.391 4.452-1.391 1.698 0 3.098 0.461 4.19 1.391 1.084 0.939 1.644 2.023 1.644 3.197v2.357c0 1.183-0.56 2.248-1.644 3.197-1.093 0.939-2.493 1.391-4.19 1.391-1.87 0.009-3.36-0.452-4.452-1.391z" />
<glyph unicode="&#xe617;" glyph-name="debt-operations-platform-index" d="M207.715 64.587l-17.855-54.43c0-3.955 3.956-7.198 8.823-7.198h117.422c4.868 0 8.841 3.215 8.841 7.198l-17.89 54.43h-99.342zM449.649 427.52h-384.526c-17.692 0-32.033-14.341-32.033-32.024v-276.74c0-17.692 14.342-32.034 32.033-32.034h384.526c17.71 0 32.051 14.341 32.051 32.034v276.749c0 17.683-14.341 32.015-32.051 32.015zM443.057 127.832h-372.912v268.63h372.912v-268.63zM172.376 249.707l16.834-4.444c0.515-2.366 1.138-4.687 1.879-6.963l-12.363-12.255c-3.956-4.226-6.476-8.986-3.675-13.791 2.799-4.841 8.471-5.048 13.781-3.685l16.879 4.606c1.589-1.779 3.279-3.468 5.048-5.067l-4.597-16.888c-1.319-5.644-1.129-10.991 3.685-13.764 4.84-2.791 9.862-0.144 13.781 3.693l12.255 12.354c2.276-0.74 4.606-1.346 6.981-1.878l4.416-16.816c1.698-5.554 4.516-10.097 10.079-10.097 5.572 0 8.606 4.822 10.087 10.097l4.444 16.816c2.375 0.524 4.705 1.138 6.963 1.878l12.274-12.346c4.217-3.991 8.959-6.502 13.781-3.712 4.813 2.8 5.039 8.471 3.675 13.764l-4.597 16.897c1.779 1.589 3.459 3.269 5.067 5.058l16.861-4.606c5.654-1.318 11.009-1.138 13.781 3.685 2.817 4.805 0.154 9.844-3.693 13.791l-12.373 12.246c0.75 2.285 1.373 4.615 1.878 6.963l16.843 4.444c5.554 1.661 10.097 4.516 10.097 10.078 0 5.572-4.813 8.589-10.097 10.078l-16.843 4.444c-0.505 2.357-1.129 4.705-1.878 6.963l12.373 12.246c3.991 4.236 6.512 8.968 3.693 13.791-2.791 4.822-8.462 5.040-13.781 3.694l-16.861-4.606c-1.608 1.761-3.269 3.459-5.067 5.058l4.597 16.888c1.337 5.627 1.129 11-3.675 13.745-4.832 2.809-9.862 0.171-13.781-3.666l-12.274-12.373c-2.276 0.75-4.597 1.355-6.963 1.879l-4.443 16.852c-1.68 5.527-4.515 10.070-10.087 10.070-5.563 0-8.589-4.787-10.078-10.070l-4.416-16.852c-2.393-0.515-4.705-1.129-6.981-1.879l-12.237 12.373c-4.254 3.955-8.959 6.466-13.799 3.666-4.822-2.763-5.058-8.462-3.684-13.745l4.606-16.888c-1.761-1.608-3.468-3.279-5.058-5.058l-16.879 4.606c-5.644 1.318-11 1.129-13.781-3.694-2.799-4.822-0.144-9.844 3.675-13.791l12.363-12.246c-0.74-2.267-1.363-4.624-1.879-6.963l-16.834-4.444c-5.536-1.671-10.097-4.515-10.097-10.078 0-5.545 4.814-8.571 10.097-10.060zM257.396 288.595c15.94 0 28.827-12.897 28.827-28.791 0-15.931-12.914-28.809-28.827-28.809-15.904 0-28.8 12.897-28.8 28.809-0.018 15.894 12.897 28.791 28.8 28.791z" />
<glyph unicode="&#xe618;" glyph-name="debt-operations-watcher" d="M183.34 187.808h148.074c27.319 0 50.411 21.548 50.411 47.007 0 25.486-23.093 47.025-50.411 47.025-1.933 0-3.847-0.109-5.753-0.298-6.358 20.798-25.702 35.564-48.099 35.564-2.61 0-6.223-0.216-9.491-0.632-12.77 10.819-26.208 15.876-41.995 15.876-33.613 0-60.942-24.167-66.496-58.061-14.675-9.103-24.257-24.474-24.257-39.484 0.009-25.919 21.548-46.998 48.019-46.998zM206.812 64.587l-17.873-54.43c0-3.955 3.956-7.198 8.841-7.198h117.423c4.868 0 8.824 3.215 8.824 7.198l-17.873 54.43h-99.342zM448.746 427.52h-384.526c-17.692 0-32.033-14.341-32.033-32.024v-276.74c0-17.692 14.342-32.034 32.033-32.034h384.526c17.71 0 32.051 14.341 32.051 32.034v276.749c0 17.683-14.341 32.015-32.051 32.015zM442.163 127.832h-372.912v268.63h372.912v-268.63z" />
<glyph unicode="&#xe619;" glyph-name="debt-portfolio-draft" d="M357.334 41.685h-63.29c-10.349 0-18.731-8.372-18.731-18.721s8.381-18.74 18.731-18.74h63.29c10.349 0 18.731 8.399 18.731 18.74s-8.381 18.721-18.731 18.721zM218.11 41.685h-63.29c-10.35 0-18.749-8.372-18.749-18.721s8.399-18.74 18.749-18.74h63.29c10.34 0 18.731 8.399 18.731 18.74s-8.39 18.721-18.731 18.721zM89.353 47.916c-13.691 7.478-23.228 21.133-25.576 36.431-1.608 10.241-11.163 17.259-21.377 15.66-10.223-1.563-17.232-11.144-15.66-21.358 4.109-26.741 20.762-50.52 44.559-63.597 2.854-1.572 5.942-2.321 9.013-2.321 6.602 0 13.023 3.504 16.41 9.717 4.994 9.077 1.68 20.464-7.37 25.467zM457.027 111.007c-10.349 0-18.731-8.543-18.731-18.893 0-15.75-7.161-30.317-19.67-39.962-8.2-6.322-9.717-18.089-3.387-26.272 3.693-4.805 9.221-7.306 14.838-7.306 4.001 0 8.019 1.274 11.461 3.901 21.747 16.789 34.255 42.175 34.255 69.639v0.289c-0.018 10.349-8.417 18.604-18.767 18.604zM44.46 138.661c10.349 0 18.73 8.39 18.73 18.712v63.308c0 10.35-8.39 18.721-18.73 18.721s-18.73-8.39-18.73-18.721v-63.308c-0.018-10.322 8.381-18.712 18.73-18.712zM457.027 149.606c10.349 0 18.748 8.39 18.748 18.74v63.29c0 10.34-8.408 18.731-18.748 18.731s-18.731-8.399-18.731-18.731v-63.29c0-10.349 8.39-18.74 18.731-18.74zM44.46 277.884c10.349 0 18.73 8.399 18.73 18.721v63.308c0 10.34-8.39 18.721-18.73 18.721s-18.73-8.39-18.73-18.721v-63.308c-0.018-10.322 8.381-18.721 18.73-18.721zM475.596 372.052c-0.668 10.322-9.591 18.135-19.895 17.502-10.332-0.641-18.161-9.564-17.502-19.877 0.072-1.075 0.108-2.177 0.108-3.269v-58.82c0-10.349 8.39-18.731 18.731-18.731s18.748 8.39 18.748 18.731v58.802c-0.009 1.906-0.063 3.793-0.19 5.663zM76.484 406.008c3.477 0 6.954 0.949 10.061 2.935 8.092 5.148 17.466 7.866 27.057 7.866h24.077c10.35 0 18.731 8.39 18.731 18.74 0 10.341-8.381 18.721-18.731 18.721h-24.077c-16.761 0-33.099-4.732-47.206-13.736-8.715-5.554-11.289-17.141-5.734-25.874 3.585-5.59 9.627-8.652 15.823-8.652zM432.545 422.418c4.127 9.5-0.244 20.51-9.736 24.646-11.072 4.787-22.803 7.225-34.923 7.225h-35.031c-10.349 0-18.731-8.39-18.731-18.721 0-10.35 8.381-18.74 18.731-18.74h35.031c6.954 0 13.709-1.391 20.022-4.127 2.447-1.057 4.958-1.554 7.442-1.554 7.234-0.018 14.142 4.209 17.195 11.271zM213.631 416.81h63.29c10.349 0 18.731 8.39 18.731 18.739 0 10.341-8.39 18.721-18.731 18.721h-63.29c-10.35 0-18.749-8.39-18.749-18.721 0-10.349 8.399-18.739 18.749-18.739zM383 156.732h-264.493c-6.963 0-12.608-5.663-12.608-12.635v-21.277c-0.009-6.972 5.653-12.625 12.608-12.625h264.493c6.963 0 12.625 5.654 12.625 12.625v21.277c0 6.972-5.663 12.635-12.625 12.635zM383 252.516h-264.493c-6.963 0-12.608-5.654-12.608-12.607v-21.296c-0.009-6.963 5.653-12.616 12.608-12.616h264.493c6.963 0 12.625 5.654 12.625 12.616v21.296c0 6.954-5.663 12.607-12.625 12.607zM383 348.327h-264.493c-6.963 0-12.608-5.654-12.608-12.635v-21.278c-0.009-6.972 5.653-12.625 12.608-12.625h264.493c6.963 0 12.625 5.654 12.625 12.625v21.278c0 6.981-5.663 12.635-12.625 12.635z" />
<glyph unicode="&#xe61a;" glyph-name="debt-portfolio-integration-details" d="M173.244 125.34l-5.825 5.825 11.786 8.498c19.227-18.947 45.571-30.67 74.642-30.67 58.639 0 106.341 47.712 106.341 106.368 0 58.639-47.702 106.35-106.341 106.35-3.333 0-6.62-0.189-9.88-0.496-1.030-0.1-2.059-0.244-3.097-0.37-2.231-0.271-4.425-0.605-6.62-1.020-1.138-0.19-2.267-0.434-3.395-0.687-2.141-0.478-4.272-1.012-6.34-1.635-1.012-0.289-2.059-0.542-3.025-0.867-2.863-0.939-5.68-1.942-8.462-3.107-1.12-0.469-2.177-1.002-3.279-1.526-1.689-0.759-3.323-1.536-4.967-2.384-1.373-0.731-2.763-1.517-4.1-2.303-1.246-0.713-2.447-1.436-3.613-2.194-1.472-0.939-2.935-1.888-4.362-2.89-0.84-0.578-1.653-1.228-2.457-1.834-5.6-4.218-10.756-8.923-15.434-14.115-0.244-0.271-0.524-0.542-0.75-0.822-1.643-1.843-3.179-3.748-4.687-5.699-0.154-0.198-0.28-0.397-0.46-0.605-8.047-10.675-14.097-22.876-17.674-36.125-0.108-0.38-0.19-0.768-0.298-1.147-0.614-2.447-1.219-4.913-1.68-7.423-0.208-1.156-0.361-2.348-0.56-3.522-0.262-1.887-0.569-3.766-0.768-5.69-0.298-3.26-0.515-6.575-0.515-9.898 0-3.838 0.28-7.586 0.696-11.28 0.144-1.318 0.343-2.61 0.533-3.928 0.352-2.357 0.786-4.687 1.31-6.972 0.325-1.508 0.605-3.007 0.994-4.488 0.831-3.062 1.734-6.087 2.817-9.031 1.554-4.326 3.297-8.517 5.364-12.581l-12.129-10.647-6.421 6.394h-3.043c0 0-84.721-67.787-96.38-77.387-0.127-0.082-0.199-0.154-0.298-0.216-2.375-1.978-4.236-3.531-5.464-4.57-0.145-0.135-0.244-0.226-0.389-0.334-0.524-0.452-0.939-0.831-1.156-1.029-4.877-4.877-3.035-15.849-3.035-15.849s9.148-15.868 17.096-23.788c0.885-0.903 1.797-1.517 2.773-2.059 0.217-0.108 0.461-0.226 0.696-0.343 0.93-0.425 1.861-0.759 2.8-0.921h0.027c0.714-0.135 1.418-0.19 2.104-0.19 0.172 0 0.307 0.054 0.478 0.063 2.52 0.108 4.822 0.822 6.62 1.625 0.298 0.135 0.515 0.216 0.776 0.37 0.587 0.289 1.111 0.56 1.517 0.804 0.189 0.127 0.298 0.171 0.46 0.271 0.379 0.216 0.632 0.416 0.632 0.416l106.449 79.916-0.009 5.744zM253.846 284.169c37.913 0 68.79-30.859 68.79-68.781 0-37.94-30.877-68.79-68.79-68.79-37.948 0-68.817 30.85-68.817 68.79 0 37.922 30.869 68.781 68.817 68.781zM474.909 369.026l-65.711 64.762c-2.926 2.89-6.9 4.506-11.009 4.506h-260.060c-8.661 0-15.642-7.017-15.642-15.669v-175.456c4.29 24.772 15.38 47.178 31.347 65.286v94.501h234.998v-49.237c0-5.193 4.209-9.393 9.392-9.393h50.023v-329.301h-294.441v43.051l-31.347-23.517v-35.185c0-8.661 6.981-15.678 15.642-15.678h325.769c8.679 0 15.678 7.017 15.678 15.678v354.498c0.027 4.19-1.661 8.209-4.642 11.154z" />
<glyph unicode="&#xe61b;" glyph-name="debt-portfolio-integration-list" d="M434.296 342.212v-220.611h31.365v236.254c0 8.661-7.017 15.678-15.669 15.678h-139.314l3.305-31.347 120.313 0.027zM82.49 342.212h108.563l3.305 31.347h-127.537c-8.661 0-15.678-7.017-15.678-15.678v-236.253h31.356l-0.009 220.584zM282.673 95.149v-5.952c0-4.705-3.82-8.489-8.498-8.489h-31.518c-4.696 0-8.517 3.811-8.517 8.489v5.952h-201.060v-28.548c0-8.661 7.017-15.651 15.669-15.651h419.277c8.661 0 15.678 6.99 15.678 15.651v28.548h-201.032zM171.139 287.484c-1.020 0-2.023-0.163-2.981-0.416-0.28-0.045-0.533-0.154-0.786-0.226-0.75-0.235-1.49-0.56-2.149-0.939-0.198-0.126-0.398-0.207-0.578-0.334-0.758-0.488-1.454-1.012-2.086-1.635-0.054-0.063-0.082-0.127-0.136-0.19-0.831-0.849-1.554-1.833-2.104-2.899-2.068-4.064-1.698-8.968 0.994-12.661l81.37-100.435c2.294-3.152 5.96-5.012 9.853-5.012 3.928 0 7.559 1.861 9.844 5.012l81.406 100.435c1.644 2.248 2.312 4.958 2.185 7.667-0.045 0.804-0.118 1.635-0.316 2.421-0.19 0.903-0.478 1.743-0.93 2.601-2.041 4.064-6.24 6.629-10.792 6.629l-41.38-0.009-7.297 69.070-1.779 16.997-2.519 23.833c0 15.696-12.725 28.412-28.439 28.412-15.669 0-28.385-12.716-28.385-28.412l-11.596-109.891-41.398-0.018z" />
<glyph unicode="&#xe61c;" glyph-name="debt-portfolio-integration-product-details" d="M173.244 125.34l-5.825 5.825 11.786 8.498c19.227-18.947 45.571-30.67 74.642-30.67 58.639 0 106.341 47.712 106.341 106.368 0 58.639-47.702 106.35-106.341 106.35-3.333 0-6.62-0.189-9.88-0.496-1.030-0.1-2.059-0.244-3.097-0.37-2.231-0.271-4.425-0.605-6.62-1.020-1.138-0.19-2.267-0.434-3.395-0.687-2.141-0.478-4.272-1.012-6.34-1.635-1.012-0.289-2.059-0.542-3.025-0.867-2.863-0.939-5.68-1.942-8.462-3.107-1.12-0.469-2.177-1.002-3.279-1.526-1.689-0.759-3.323-1.536-4.967-2.384-1.373-0.731-2.763-1.517-4.1-2.303-1.246-0.713-2.447-1.436-3.613-2.194-1.472-0.939-2.935-1.888-4.362-2.89-0.84-0.578-1.653-1.228-2.457-1.834-5.6-4.218-10.756-8.923-15.434-14.115-0.244-0.271-0.524-0.542-0.75-0.822-1.643-1.843-3.179-3.748-4.687-5.699-0.154-0.198-0.28-0.397-0.46-0.605-8.047-10.675-14.097-22.876-17.674-36.125-0.108-0.38-0.19-0.768-0.298-1.147-0.614-2.447-1.219-4.913-1.68-7.423-0.208-1.156-0.361-2.348-0.56-3.522-0.262-1.887-0.569-3.766-0.768-5.69-0.298-3.26-0.515-6.575-0.515-9.898 0-3.838 0.28-7.586 0.696-11.28 0.144-1.318 0.343-2.61 0.533-3.928 0.352-2.357 0.786-4.687 1.31-6.972 0.325-1.508 0.605-3.007 0.994-4.488 0.831-3.062 1.734-6.087 2.817-9.031 1.554-4.326 3.297-8.517 5.364-12.581l-12.129-10.647-6.421 6.394h-3.043c0 0-84.721-67.787-96.38-77.387-0.127-0.082-0.199-0.154-0.298-0.216-2.375-1.978-4.236-3.531-5.464-4.57-0.145-0.135-0.244-0.226-0.389-0.334-0.524-0.452-0.939-0.831-1.156-1.029-4.877-4.877-3.035-15.849-3.035-15.849s9.148-15.868 17.096-23.788c0.885-0.903 1.797-1.517 2.773-2.059 0.217-0.108 0.461-0.226 0.696-0.343 0.93-0.425 1.861-0.759 2.8-0.921h0.027c0.714-0.135 1.418-0.19 2.104-0.19 0.172 0 0.307 0.054 0.478 0.063 2.52 0.108 4.822 0.822 6.62 1.625 0.298 0.135 0.515 0.216 0.776 0.37 0.587 0.289 1.111 0.56 1.517 0.804 0.189 0.127 0.298 0.171 0.46 0.271 0.379 0.216 0.632 0.416 0.632 0.416l106.449 79.916-0.009 5.744zM253.846 284.169c37.913 0 68.79-30.859 68.79-68.781 0-37.94-30.877-68.79-68.79-68.79-37.948 0-68.817 30.85-68.817 68.79 0 37.922 30.869 68.781 68.817 68.781zM474.909 369.026l-65.711 64.762c-2.926 2.89-6.9 4.506-11.009 4.506h-260.060c-8.661 0-15.642-7.017-15.642-15.669v-175.456c4.29 24.772 15.38 47.178 31.347 65.286v94.501h234.998v-49.237c0-5.193 4.209-9.393 9.392-9.393h50.023v-329.301h-294.441v43.051l-31.347-23.517v-35.185c0-8.661 6.981-15.678 15.642-15.678h325.769c8.679 0 15.678 7.017 15.678 15.678v354.498c0.027 4.19-1.661 8.209-4.642 11.154z" />
<glyph unicode="&#xe61d;" glyph-name="debt-portfolio" d="M454.31 223.327c-12.228 0-22.090-9.916-22.090-22.099v-142.981h-362.31v142.981c0 12.21-9.907 22.099-22.099 22.099-12.21 0-22.081-9.916-22.081-22.099v-165.079c0-12.21 9.898-22.090 22.081-22.090h406.526c12.21 0 22.081 9.907 22.081 22.090v165.079c0 12.21-9.898 22.099-22.108 22.099zM117.043 102.274h264.493c6.963 0 12.616 5.654 12.616 12.625v21.286c0 6.963-5.654 12.625-12.616 12.625h-264.493c-6.963 0-12.617-5.663-12.617-12.625v-21.286c-0.027-6.972 5.636-12.625 12.617-12.625zM117.043 198.067h264.493c6.963 0 12.616 5.663 12.616 12.608v21.314c0 6.963-5.654 12.617-12.616 12.617h-264.493c-6.963 0-12.617-5.662-12.617-12.617v-21.304c-0.027-6.954 5.636-12.616 12.617-12.616zM117.043 293.86h264.493c6.963 0 12.616 5.654 12.616 12.635v21.286c0 6.972-5.654 12.625-12.616 12.625h-264.493c-6.963 0-12.617-5.654-12.617-12.625v-21.286c-0.027-6.972 5.636-12.635 12.617-12.635zM117.043 389.671h264.493c6.963 0 12.616 5.654 12.616 12.608v21.313c0 6.963-5.654 12.617-12.616 12.617h-264.493c-6.963 0-12.617-5.654-12.617-12.617v-21.295c-0.027-6.972 5.636-12.626 12.617-12.626z" />
<glyph unicode="&#xe61e;" glyph-name="debt-report" d="M343.399 298.186h-189.012c-3.531 0-6.394-2.854-6.394-6.394 0-3.522 2.854-6.385 6.394-6.385h189.012c3.558 0 6.403 2.863 6.403 6.385 0 3.531-2.845 6.394-6.403 6.394zM154.387 348.363h75.626c3.549 0 6.394 2.863 6.394 6.394 0 3.54-2.863 6.394-6.394 6.394h-75.626c-3.531 0-6.394-2.854-6.394-6.394-0.009-3.531 2.863-6.394 6.394-6.394zM426.954 372.728l-67.029 66.063c-2.99 2.953-7.017 4.615-11.226 4.615h-265.288c-8.832 0-16.003-7.171-16.003-16.003v-406.607c0-8.832 7.171-15.994 16.003-15.994h332.317c8.841 0 15.994 7.152 15.994 15.994v340.553c0 4.272-1.716 8.372-4.769 11.379zM399.735 36.799h-300.338v374.628h239.721v-50.231c0-5.283 4.29-9.582 9.591-9.582h51.034v-314.815zM343.11 236.359h-39.024c-3.288 0-5.933-2.646-5.933-5.934v-139.584c0-3.288 2.646-5.933 5.933-5.933h39.024c3.288 0 5.933 2.655 5.933 5.933v139.584c-0.009 3.287-2.673 5.934-5.933 5.934zM192.968 153.282h-39.042c-3.279 0-5.924-2.646-5.924-5.933v-56.498c0-3.288 2.655-5.933 5.924-5.933h39.041c3.269 0 5.924 2.655 5.924 5.933v56.498c-0.009 3.288-2.664 5.933-5.924 5.933zM268.025 181.82h-39.041c-3.279 0-5.916-2.637-5.916-5.933v-85.055c0-3.288 2.637-5.933 5.916-5.933h39.041c3.26 0 5.925 2.655 5.925 5.933v85.055c0.018 3.296-2.655 5.933-5.925 5.933z" />
<glyph unicode="&#xe61f;" glyph-name="debt-reporting-custom" d="M437.918 335.304l-34.101 37.976c-6.286 6.981-18.144 6.584-26.434-0.876l-324.243-291.334c-5.898-5.32-5.59-15.272 0.669-22.271l34.128-37.994c6.285-6.99 16.148-8.336 22.045-3.034l4.38 3.947 319.863 287.406c8.317 7.459 9.962 19.191 3.693 26.181zM330.565 250.285l-22.767 25.323 79.094 71.038 22.74-25.305-79.067-71.056zM213.495 356.716l15.624-46.88 15.615 46.88 46.871 15.624-46.871 15.624-15.615 46.881-15.624-46.881-46.899-15.624 46.899-15.624zM322.853 372.341l7.821 23.445 23.445 7.812-23.445 7.812-7.821 23.436-7.803-23.445-23.435-7.803 23.435-7.812 7.803-23.445zM135.34 372.341l7.812 23.445 23.445 7.812-23.445 7.812-7.812 23.436-7.812-23.445-23.445-7.803 23.445-7.812 7.812-23.445zM455.691 250.971l-7.812 23.445-7.812-23.445-23.445-7.812 23.445-7.812 7.812-23.435 7.812 23.435 23.445 7.812-23.445 7.812z" />
<glyph unicode="&#xe620;" glyph-name="debt-reporting" d="M303.616 228.809h-161.765c-3.025 0-5.464-2.447-5.464-5.464s2.447-5.464 5.464-5.464h161.765c3.043 0 5.482 2.447 5.482 5.464s-2.438 5.464-5.482 5.464zM141.851 271.752h64.726c3.035 0 5.473 2.447 5.473 5.464 0 3.025-2.447 5.464-5.473 5.464h-64.726c-3.025 0-5.464-2.447-5.464-5.464-0.018-3.017 2.439-5.464 5.464-5.464zM317.759 358.18c-2.556 2.519-6.005 3.955-9.6 3.955h-227.060c-7.559 0-13.7-6.141-13.7-13.7v-347.995c0-7.559 6.141-13.691 13.7-13.691h284.416c7.577 0 13.7 6.123 13.7 13.691v291.452c0 3.657-1.472 7.171-4.082 9.744l-57.375 56.543zM351.842 14.122h-257.061v320.631h205.168v-42.988c0-4.524 3.666-8.2 8.209-8.2h43.683v-269.443zM450.119 377.019l-57.365 56.543c-2.556 2.519-6.005 3.947-9.6 3.947h-227.069c-7.559 0-13.682-6.123-13.682-13.7v-31.229h27.346v17.556h205.187v-42.988c0-4.534 3.649-8.2 8.191-8.2h43.702v-269.434h-17.159v-27.373h30.823c7.577 0 13.7 6.141 13.7 13.709v291.433c0.009 3.657-1.472 7.171-4.073 9.736zM174.869 113.816h-33.415c-2.809 0-5.076-2.267-5.076-5.075v-48.353c0-2.817 2.276-5.075 5.076-5.075h33.415c2.799 0 5.076 2.276 5.076 5.075v48.353c-0.009 2.808-2.285 5.075-5.076 5.075zM303.373 184.918h-33.397c-2.817 0-5.075-2.267-5.075-5.075v-119.473c0-2.817 2.267-5.075 5.075-5.075h33.397c2.817 0 5.075 2.276 5.075 5.075v119.472c-0.009 2.808-2.285 5.075-5.075 5.075zM239.107 138.236h-33.415c-2.809 0-5.066-2.258-5.066-5.075v-72.8c0-2.817 2.258-5.075 5.066-5.075h33.415c2.799 0 5.076 2.276 5.076 5.075v72.799c0.009 2.817-2.276 5.075-5.076 5.075z" />
<glyph unicode="&#xe621;" glyph-name="fx-menu-account" d="M479.416 379.24l-55.523 55.532c-4.326 4.29-11.252 4.29-15.543 0l-7.74-7.767-18.685-18.658-225.678-225.66c-1.012-1.038-1.833-2.276-2.393-3.649l-37.606-93.129c-1.662-4.073-0.704-8.751 2.439-11.849 2.077-2.095 4.904-3.206 7.713-3.206 1.391 0 2.799 0.253 4.127 0.795l93.165 37.606c1.337 0.56 2.601 1.373 3.603 2.447l194.638 194.611v-236.082c0-27.337-22.298-49.599-49.599-49.599h-258.154c-27.364 0-49.617 22.262-49.617 49.599v258.145c0 27.319 22.252 49.59 49.617 49.59h202.522c0.37 0.415 0.632 0.876 1.038 1.273l29.721 29.74h-233.282c-44.469 0-80.638-36.151-80.638-80.603v-258.154c0-44.442 36.169-80.611 80.638-80.611h258.145c44.442 0 80.603 36.169 80.603 80.611v267.086l26.479 26.479c2.059 2.050 3.206 4.832 3.206 7.74 0.009 2.863-1.156 5.654-3.197 7.713zM213.387 128.726l-36.377-14.685-18.369 18.342 14.712 36.359 242.729 242.774 18.459-18.423-230.97-230.98c-2.104-2.14-2.104-5.581 0-7.731 1.102-1.057 2.465-1.625 3.893-1.625 1.409 0 2.817 0.56 3.893 1.625l230.97 230.952 13.808-13.836-242.747-242.774z" />
<glyph unicode="&#xe622;" glyph-name="fx-menu-banks" d="M95.368 262.541c-3.441 0-6.213-2.791-6.213-6.223v-203.208c0-3.423 2.781-6.214 6.213-6.214h38.419c3.441 0 6.222 2.791 6.222 6.214v203.2c0 3.441-2.791 6.223-6.222 6.223h-38.418zM193.274 262.541c-3.432 0-6.214-2.791-6.214-6.223v-203.208c0-3.423 2.791-6.214 6.214-6.214h38.41c3.441 0 6.214 2.791 6.214 6.214v203.2c0 3.441-2.781 6.223-6.214 6.223h-38.41zM289.555 262.541c-3.432 0-6.214-2.791-6.214-6.223v-203.208c0-3.423 2.781-6.214 6.214-6.214h38.454c3.441 0 6.214 2.791 6.214 6.214v203.2c0 3.441-2.772 6.223-6.214 6.223h-38.454zM388.319 262.541c-3.432 0-6.214-2.791-6.214-6.223v-203.208c0-3.423 2.791-6.214 6.214-6.214h38.445c3.441 0 6.223 2.791 6.223 6.214v203.2c0 3.441-2.791 6.223-6.223 6.223h-38.445zM51.83 298.204h412.243c0.054 0 0.091 0 0.135 0 8.579 0 15.543 6.954 15.543 15.542 0 6.647-4.182 12.328-10.034 14.54l-204.826 98.52c-4.262 2.059-9.212 2.059-13.457 0.018l-206.333-99.053c-6.547-3.143-10.043-10.395-8.426-17.466 1.608-7.089 7.902-12.101 15.154-12.101zM257.955 379.24c12.942 0 23.426-10.485 23.426-23.427s-10.485-23.426-23.426-23.426-23.427 10.485-23.427 23.426 10.494 23.427 23.427 23.427zM464.081 15.107h-412.252c-8.588 0-15.543-6.954-15.543-15.543s6.954-15.56 15.543-15.56h412.243c8.589 0 15.56 6.963 15.56 15.56s-6.963 15.543-15.551 15.543z" />
<glyph unicode="&#xe623;" glyph-name="fx-menu-calendar" d="M137.643 91.31c9.031-5.925 27.174-12.824 48.65-12.824 48.082 0 69.982 30.525 69.982 58.919 0 19.661-10.521 36.332-27.392 45.291 13.393 9.491 20.798 23.282 20.798 39.502 0 24.086-17.484 48.37-56.553 48.37-21.404 0-40.008-7.848-49.418-14.567-2.791-1.987-3.901-5.608-2.691-8.823l6.322-16.861c0.831-2.203 2.637-3.893 4.868-4.57 2.258-0.686 4.705-0.28 6.62 1.083 6.385 4.57 18.035 9.916 29.821 9.916 14.477 0 22.452-6.484 22.452-18.243 0-15.705-18.297-21.404-30.615-21.404h-12.897c-4.181 0-7.568-3.387-7.568-7.568v-17.385c0-4.173 3.387-7.559 7.568-7.559h12.897c6.087 0 36.387-1.291 36.685-26.796 0.118-6.521-2.294-12.788-6.601-17.177-5.418-5.509-13.664-8.3-24.547-8.3-14.431 0-28.168 5.961-34.029 9.464-1.941 1.156-4.326 1.4-6.439 0.632-2.131-0.75-3.82-2.438-4.579-4.579l-6.331-17.637c-1.165-3.305 0.072-6.972 2.999-8.887zM283.784 220.582c0.578-2.258 2.159-4.118 4.29-5.075 2.149-0.939 4.588-0.822 6.647 0.28l19.119 10.322v-137.165c0-4.163 3.387-7.559 7.568-7.559h22.388c4.181 0 7.568 3.387 7.568 7.559v171.158c0 4.181-3.387 7.568-7.568 7.568h-19.76c-1.238 0-2.466-0.298-3.567-0.894l-37.398-20.013c-3.062-1.643-4.615-5.157-3.757-8.535l4.471-17.647zM433.556 437.897h-355.69c-25.648 0-46.519-20.862-46.519-46.51v-356.493c0-25.649 20.862-46.519 46.519-46.519h355.69c25.649 0 46.519 20.88 46.519 46.519v356.485c0 25.649-20.862 46.519-46.519 46.519zM352.981 404.302c9.952 0 18.008-8.074 18.008-18.017s-8.065-18.008-18.008-18.008c-9.943 0-18.017 8.055-18.017 18.008s8.065 18.017 18.017 18.017zM159.408 404.446c9.953 0 18.008-8.074 18.008-18.017 0-9.952-8.065-18.008-18.008-18.008s-18.017 8.065-18.017 18.008c0 9.943 8.074 18.017 18.017 18.017zM449.803 34.885c0-8.95-7.279-16.247-16.238-16.247h-355.699c-8.959 0-16.238 7.297-16.238 16.247v306.028h388.175v-306.028z" />
<glyph unicode="&#xe624;" glyph-name="fx-menu-createOperation" d="M255.969 439.423c-123.979 0-224.45-100.453-224.45-224.423 0-124.006 100.471-224.495 224.45-224.495 123.988 0 224.522 100.489 224.522 224.495-0.009 123.97-100.543 224.423-224.522 224.423zM356.647 188.675h-74.444v-74.262c0-14.549-11.677-26.308-26.244-26.308-14.495 0-26.244 11.759-26.244 26.308v74.262h-74.29c-14.549 0-26.236 11.795-26.236 26.272 0 14.549 11.686 26.254 26.236 26.254h74.299v74.38c0 14.513 11.75 26.236 26.244 26.236 14.567 0 26.245-11.723 26.245-26.236v-74.38h74.443c14.477 0 26.236-11.704 26.236-26.254-0.009-14.477-11.767-26.272-26.245-26.272z" />
<glyph unicode="&#xe625;" glyph-name="fx-menu-emir-documentation" d="M330.286 237.406c-6.476 4.696-16.247 3.395-21.178-2.745l-72.817-90.293-23.933 26.813c-5.22 5.834-15.136 6.647-21.278 1.707-3.197-2.556-5.148-6.195-5.491-10.196-0.334-3.983 0.966-7.848 3.667-10.865l36.107-40.45c2.908-3.224 7.117-5.075 11.532-5.075 0.054 0 0.334 0 0.38 0 4.579 0.108 8.841 2.168 11.668 5.663l84.242 104.481c2.538 3.161 3.63 7.072 3.106 11.027-0.533 4.010-2.673 7.541-6.005 9.934zM406.418 396.101h-51.622c7.234-8.517 11.84-19.317 12.608-31.149h23.435v-342.676h-267.402v342.676h23.427c0.786 11.84 5.382 22.632 12.607 31.149h-51.622c-8.588 0-15.57-6.981-15.57-15.588v-373.797c0-8.625 6.972-15.596 15.57-15.596h298.568c8.606 0 15.587 6.963 15.587 15.596v373.797c0 8.606-6.981 15.588-15.587 15.588zM200.427 324.494h113.412c19.327 0 35.058 15.714 35.058 35.031v1.888c0 1.183-0.063 2.384-0.19 3.549-1.635 16.12-14.224 28.999-30.191 31.149-1.526 0.207-3.079 0.352-4.678 0.352h-15.19v2.809c0 19.326-15.723 35.058-35.058 35.058h-12.923c-19.327 0-35.041-15.732-35.041-35.058v-2.809h-15.209c-1.589 0-3.143-0.144-4.678-0.352-15.967-2.149-28.575-15.028-30.2-31.149-0.118-1.165-0.18-2.366-0.18-3.549v-1.888c0.018-19.317 15.75-35.031 35.068-35.031zM184.081 361.413c0 1.219 0.162 2.384 0.406 3.549 1.625 7.324 8.146 12.806 15.949 12.806h24.547c5.157 0 9.347 4.182 9.347 9.347v12.156c0 9.022 7.333 16.365 16.356 16.365h12.924c9.022 0 16.365-7.334 16.365-16.365v-12.165c0-5.166 4.19-9.347 9.347-9.347h24.538c7.803 0 14.315-5.482 15.949-12.806 0.253-1.165 0.416-2.33 0.416-3.549v-1.887c0-8.995-7.334-16.338-16.365-16.338h-113.43c-9.013 0-16.356 7.334-16.356 16.338v1.897zM253.015 388.271c1.201-0.849 2.565-1.427 4.127-1.427 1.572 0 2.926 0.578 4.127 1.427 1.906 1.318 3.224 3.414 3.224 5.924 0 0.668-0.207 1.291-0.38 1.906-0.858 3.106-3.586 5.455-6.972 5.455s-6.114-2.348-6.981-5.455c-0.172-0.614-0.38-1.238-0.38-1.906 0-2.502 1.327-4.597 3.233-5.924z" />
<glyph unicode="&#xe626;" glyph-name="fx-menu-index-accounts" d="M384.048 126.757c-7.189 0-13.195-6.195-13.447-13.33-1.382-8.923-42.293-29.351-117.214-29.351s-115.833 20.428-117.214 29.351c-0.253 7.135-6.25 13.33-13.448 13.33-7.189 0-13.059-5.707-13.33-12.842v-66.983c0-1.608 0.289-3.134 0.794-4.551 8.2-34.084 78.029-49.698 143.188-49.698s134.979 15.615 143.179 49.698c0.515 1.418 0.795 2.944 0.795 4.551l-0.027 66.767c-0.226 7.125-6.087 13.059-13.276 13.059zM384.048 259.135c-7.189 0-13.195-6.204-13.447-13.339-1.382-8.905-42.293-29.351-117.214-29.351s-115.833 20.447-117.214 29.351c-0.253 7.135-6.25 13.339-13.448 13.339-7.189 0-13.059-5.708-13.33-12.842v-66.975c0-1.616 0.289-3.152 0.794-4.56 8.2-34.084 78.029-49.698 143.188-49.698s134.979 15.615 143.179 49.698c0.515 1.409 0.795 2.944 0.795 4.56l-0.027 66.767c-0.226 7.117-6.087 13.050-13.276 13.050zM397.377 380.36c0 38.806-74.633 56.471-143.974 56.471-69.359 0-143.983-17.665-143.983-56.471 0-0.082 0.027-0.154 0.027-0.226 0-0.091-0.027-0.172-0.027-0.244v-66.496c0-1.607 0.289-3.134 0.794-4.552 8.2-34.083 78.028-49.698 143.188-49.698s134.979 15.606 143.179 49.698c0.524 1.418 0.795 2.944 0.795 4.552v66.496c0 0.091-0.027 0.172-0.027 0.244 0 0.082 0.027 0.154 0.027 0.226zM370.6 379.882c-1.382-8.923-42.293-29.351-117.214-29.351s-115.833 20.428-117.214 29.351c-0.027 0.162-0.126 0.325-0.126 0.488 0 8.652 41.119 29.829 117.341 29.829 76.214 0 117.332-21.178 117.332-29.829 0.009-0.163-0.091-0.334-0.118-0.488z" />
<glyph unicode="&#xe627;" glyph-name="fx-menu-index-alerts" d="M3753.153-20436.879l-55.406 200.644c-1.834 6.665-7.902 11.289-14.838 11.289h-141.905c-6.918 0-12.986-4.624-14.838-11.289l-55.387-200.644c-1.291-4.624-0.334-9.591 2.574-13.402 2.908-3.829 7.441-6.078 12.237-6.078h173.659v-54.376c-4.308-2.249-7.27-6.692-7.27-11.885 0-7.406 5.997-13.411 13.42-13.411 7.405 0 13.42 6.005 13.42 13.411 0 5.193-2.962 9.636-7.27 11.885v54.376h66.749c4.796 0 9.329 2.249 12.237 6.078 2.935 3.811 3.892 8.787 2.619 13.402zM3692.139-20632.032h-64.789v157.421h-30.778v-157.421h-62.017c-8.48 0-15.38-6.891-15.38-15.38 0-8.499 6.9-15.398 15.38-15.398h157.584c8.499 0 15.38 6.9 15.38 15.398 0 8.489-6.872 15.38-15.38 15.38zM232.722 345.22c-3.595 3.594-8.67 5.247-13.709 4.416-5.003-0.84-9.32-4.019-11.569-8.561l-115.255-233.065-21.476-21.467-30.453-20.193c-3.956-2.61-6.511-6.882-6.981-11.569-0.469-4.696 1.201-9.365 4.533-12.716l49.301-49.301c2.981-2.944 6.999-4.606 11.144-4.606 0.533 0 1.056 0.018 1.572 0.072 4.705 0.478 8.941 3.034 11.569 6.963l20.5 30.923 19.489 19.471c0.56-0.831 1.219-1.625 1.951-2.366l50.709-50.709c2.953-2.962 6.873-4.588 11.063-4.588 4.181 0 8.101 1.625 11.036 4.551l7.306 7.306c6.087 6.105 6.069 16.012-0.018 22.081l-43.557 43.566 196.191 97.030c4.551 2.258 7.74 6.565 8.57 11.569s-0.831 10.106-4.407 13.709l-157.512 157.485zM97.816 16.957l-35.42 35.42 28.873 16.283 22.813-22.822-16.265-28.882zM478.675 267.209c-8.236 46.574-28.15 85.814-57.763 115.418-29.559 29.595-68.79 49.499-115.373 57.754-5.5 0.966-12.563-3.386-15.786-9.618-3.26-6.24-1.481-12.129 3.983-13.077l-0.054-0.045c43.711-7.712 80.341-26.425 108.075-54.141 27.743-27.762 46.492-64.41 54.168-108.102 0.949-5.455 6.827-7.261 13.159-3.964 1.707 0.93 3.279 2.095 4.606 3.423 3.594 3.577 5.654 8.39 4.985 12.355zM367.493 329.433c-17.466 17.466-39.141 30.715-64.31 38.699-5.094 1.608-12.31-2.068-16.084-8.209-3.829-6.078-2.808-12.382 2.294-13.998 23.002-7.333 42.952-19.498 59.036-35.564 16.139-16.166 28.331-36.314 35.808-59.551 1.625-5.058 7.938-6.078 14.062-2.239 1.274 0.794 2.438 1.716 3.459 2.745 3.964 3.982 6.033 9.365 4.741 13.42-8.2 25.178-21.431 47.115-39.005 64.699z" />
<glyph unicode="&#xe628;" glyph-name="fx-menu-index-analysis" d="M322.161 39.457h-137.017l-10.24-60.078c-0.487-2.834 0.309-5.723 2.151-7.921s4.573-3.45 7.435-3.45h138.317c0.037 0 0.084 0 0.13 0 5.378 0 9.736 4.358 9.736 9.736 0 1.123-0.187 2.188-0.533 3.188l-9.978 58.526zM469.213 434.19h-426.173c-10.25 0-18.564-8.642-18.564-19.312v-336.627c0-10.68 8.314-19.321 18.564-19.321h426.173c10.24 0 18.563 8.642 18.563 19.321v336.627c0 10.671-8.332 19.312-18.563 19.312zM459.721 117.94h-407.18v272.173c0 9.418 7.556 17.048 16.899 17.048h373.363c9.352 0 16.918-7.632 16.918-17.048v-272.173zM220.018 289.822c-2.459-3.61-5.583-6.725-9.184-9.193l64.417-64.352c2.45 3.601 5.574 6.724 9.183 9.184l-64.417 64.361zM386.419 293.863l-64.173-67.906c3.695-2.357 6.874-5.387 9.428-8.921l64.212 67.952c-3.704 2.329-6.893 5.34-9.464 8.875zM122.793 261.12c3.264-2.899 5.948-6.369 7.93-10.296l38.876 31.928c-3.348 2.787-6.136 6.173-8.249 10.035l-38.558-31.667zM191.494 330.625c-11.868 0-21.482-9.623-21.482-21.472 0-2.825 0.58-5.49 1.562-7.959 1.655-4.143 4.545-7.641 8.23-10.035 3.367-2.188 7.369-3.497 11.69-3.497 3.554 0 6.865 0.954 9.82 2.497 3.937 2.039 7.136 5.247 9.174 9.184 1.534 2.946 2.478 6.247 2.478 9.81 0.009 11.85-9.623 21.472-21.472 21.472zM313.061 216.24c-2.825 1.365-5.938 2.197-9.277 2.197-3.563 0-6.874-0.954-9.839-2.488-3.937-2.048-7.135-5.247-9.175-9.183-1.534-2.946-2.478-6.247-2.478-9.81 0-11.858 9.614-21.473 21.481-21.473 11.849 0 21.464 9.614 21.464 21.473 0 3.779-1.057 7.266-2.768 10.353-2.141 3.881-5.406 6.995-9.409 8.931zM414.214 335.535c-11.858 0-21.481-9.614-21.481-21.481 0-3.834 1.084-7.379 2.844-10.484 2.179-3.863 5.461-6.967 9.493-8.875 2.777-1.328 5.863-2.123 9.147-2.123 11.858 0 21.464 9.623 21.464 21.481 0.009 11.868-9.605 21.481-21.464 21.481zM112.629 252.769c-3.535 2.571-7.856 4.134-12.56 4.134-11.868 0-21.481-9.614-21.481-21.473 0-11.868 9.614-21.481 21.481-21.481 11.858 0 21.463 9.614 21.463 21.482 0 2.403-0.487 4.685-1.225 6.855-1.44 4.246-4.115 7.893-7.678 10.484z" />
<glyph unicode="&#xe629;" glyph-name="fx-menu-index-bank-accounts" d="M95.368 273.621c-3.441 0-6.213-2.79-6.213-6.222v-203.208c0-3.423 2.781-6.214 6.213-6.214h38.419c3.441 0 6.222 2.791 6.222 6.214v203.2c0 3.441-2.791 6.223-6.222 6.223h-38.418zM193.274 273.621c-3.432 0-6.214-2.79-6.214-6.222v-203.208c0-3.423 2.791-6.214 6.214-6.214h38.41c3.441 0 6.214 2.791 6.214 6.214v203.2c0 3.441-2.781 6.223-6.214 6.223h-38.41zM289.555 273.621c-3.432 0-6.214-2.79-6.214-6.222v-203.208c0-3.423 2.781-6.214 6.214-6.214h38.454c3.441 0 6.214 2.791 6.214 6.214v203.2c0 3.441-2.772 6.223-6.214 6.223h-38.454zM388.319 273.621c-3.432 0-6.214-2.79-6.214-6.222v-203.208c0-3.423 2.791-6.214 6.214-6.214h38.445c3.441 0 6.223 2.791 6.223 6.214v203.2c0 3.441-2.791 6.223-6.223 6.223h-38.445zM51.83 309.285h412.243c0.054 0 0.091 0 0.135 0 8.579 0 15.543 6.954 15.543 15.543 0 6.647-4.182 12.327-10.034 14.54l-204.826 98.52c-4.262 2.059-9.212 2.059-13.457 0.018l-206.333-99.053c-6.547-3.143-10.043-10.395-8.426-17.466 1.608-7.089 7.902-12.101 15.154-12.101zM257.955 390.321c12.942 0 23.426-10.485 23.426-23.427s-10.485-23.427-23.426-23.427-23.427 10.485-23.427 23.427 10.494 23.427 23.427 23.427zM464.081 26.188h-412.252c-8.588 0-15.543-6.954-15.543-15.543s6.954-15.56 15.543-15.56h412.243c8.589 0 15.56 6.963 15.56 15.56s-6.963 15.543-15.551 15.543z" />
<glyph unicode="&#xe62a;" glyph-name="fx-menu-index-countries" d="M253.422 443.036c-122.941 0-222.959-100.002-222.959-222.951s100.011-222.978 222.959-222.978 222.959 100.029 222.959 222.978c-0.009 122.94-100.019 222.95-222.959 222.95zM253.422 28.825c-55.975 0-106.413 24.185-141.409 62.658 1.427 4.181 11.009 31.817 17.367 44.524 6.881 13.772 9.175 15.289 24.475 29.071 15.29 13.755-30.597 19.877-41.299 30.589s-16.058 10.711-28.285 20.411c-9.157 7.261-14.468-24.889-16.554-41.543-3.594 14.594-5.536 29.848-5.536 45.553 0 40.586 12.752 78.209 34.4 109.222-6.096-18.893-11.551-46.429 12.156-38.066 26 9.193 28.294 19.886 28.294 19.886l15.29 26.768c0 0 2.294-37.461 5.364-42.808 3.061-5.365 15.29-20.672 19.877 0.75 8.435 39.358 9.862 50.475 24.384 50.475s44.442 11.478 47.512-23.707c3.053-35.185-3.071-14.531-22.19-23.707-19.11-9.176-23.707-41.29-6.123-45.12 17.593-3.829 57.365-19.877 57.365-19.877l19.877-22.199 6.132-23.707c0 0 3.82-26.759 3.82-29.053s0-24.483 0-24.483 0.776-48.172 18.351-36.702c17.593 11.478 65.764 86.428 55.839 114.722-9.952 28.294-10.711 31.365 7.64 41.299 18.351 9.953 31.356 22.18 30.598 35.944-0.542 9.645 0.442 15.543 0.56 21.874 14.874-27.202 23.355-58.386 23.355-91.512-0.027-105.465-85.813-191.26-191.261-191.26z" />
<glyph unicode="&#xe62b;" glyph-name="fx-menu-index-emir-export" d="M455.538 70.132h-225.84c-8.553 0-15.498-6.936-15.498-15.507 0-8.553 6.945-15.488 15.498-15.488h225.85c8.553 0 15.498 6.936 15.498 15.488-0.009 8.579-6.945 15.507-15.507 15.507zM455.538 221.394h-225.84c-8.553 0-15.498-6.936-15.498-15.507 0-8.553 6.945-15.488 15.498-15.488h225.85c8.553 0 15.498 6.936 15.498 15.488-0.009 8.57-6.945 15.507-15.507 15.507zM229.697 341.653h225.85c8.553 0 15.498 6.936 15.498 15.488 0 8.57-6.945 15.507-15.498 15.507h-225.85c-8.553 0-15.498-6.936-15.498-15.507 0-8.553 6.936-15.488 15.498-15.488zM164.601 267.869h-92.975c-8.553 0-15.489-6.936-15.489-15.489v-92.975c0-8.553 6.936-15.507 15.489-15.507h92.975c8.553 0 15.498 6.954 15.498 15.507v92.975c-0.009 8.561-6.945 15.489-15.498 15.489zM149.103 174.894h-61.981v61.989h61.971v-61.989zM164.601 116.615h-92.975c-8.553 0-15.489-6.936-15.489-15.488v-92.975c0-8.553 6.936-15.488 15.489-15.488h92.975c8.553 0 15.498 6.936 15.498 15.488v92.975c-0.009 8.553-6.945 15.488-15.498 15.488zM149.103 23.659h-61.981v61.962h61.971v-61.962zM197.655 427.394c-6.457 4.642-16.156 3.368-21.060-2.736l-72.439-89.824-23.833 26.678c-5.193 5.807-15.064 6.611-21.169 1.707-3.197-2.556-5.12-6.159-5.455-10.16-0.334-3.955 0.958-7.794 3.639-10.81l35.916-40.216c2.89-3.224 7.081-5.076 11.487-5.076 0.045 0 0.325 0 0.371 0.009 4.57 0.108 8.796 2.149 11.596 5.644l83.826 103.93c2.511 3.143 3.613 7.017 3.097 10.964-0.551 3.991-2.664 7.496-5.978 9.889z" />
<glyph unicode="&#xe62c;" glyph-name="fx-menu-index-emir" d="M435.796 372.683l-65.25 64.311c-2.817 2.79-6.638 4.344-10.62 4.344h-258.235c-8.363 0-15.136-6.764-15.136-15.127v-416.315c0-8.363 6.773-15.136 15.136-15.136h323.476c8.354 0 15.127 6.774 15.127 15.136v352.014c0 4.055-1.625 7.93-4.498 10.774zM116.817 25.031v386.053h234.041v-49.319c0-5.012 4.064-9.077 9.077-9.077h50.113v-327.657h-293.231zM247.75 263.534c-1.806 4.741-3.297 8.517-4.462 11.361s-2.601 5.482-4.308 7.975c-1.698 2.457-3.946 4.479-6.71 6.051s-6.214 2.348-10.358 2.348c-4.073 0-7.496-0.777-10.26-2.348-2.781-1.571-5.022-3.612-6.728-6.178-1.698-2.519-3.287-5.716-4.796-9.546-1.499-3.847-2.781-7.125-3.857-9.871l-37.542-95.332c-1.554-3.811-2.646-6.791-3.315-8.923s-0.994-4.217-0.994-6.214c0-3.459 1.436-6.584 4.317-9.311 2.854-2.736 6.168-4.109 9.916-4.109 4.389 0 7.568 1.291 9.51 3.865s4.272 7.532 6.999 14.865l7.017 18.839h59.686l6.999-18.433c0.939-2.276 2.050-4.886 3.351-7.866s2.519-5.166 3.649-6.592c1.138-1.445 2.538-2.574 4.217-3.423 1.661-0.831 3.666-1.255 6.005-1.255 4.010 0 7.423 1.427 10.277 4.272 2.827 2.836 4.245 5.942 4.245 9.347 0 3.279-1.499 8.517-4.507 15.732l-38.355 94.745zM199.976 199.341l21.729 60.581 22.135-60.581h-43.864zM356.701 184.981c8.137 3.775 12.21 9.736 12.21 17.873 0 2.366-0.389 4.606-1.165 6.737s-1.914 4.055-3.387 5.834c-1.481 1.752-3.179 3.197-5.094 4.344-2.258 1.363-4.813 2.294-7.668 2.772-2.836 0.478-6.204 0.723-10.087 0.723h-26.353c-3.504 0-6.051-0.795-7.622-2.348-1.58-1.58-2.357-4.163-2.357-7.748v-61.14c0-3.513 0.767-6.069 2.294-7.676 1.536-1.608 4.1-2.421 7.685-2.421h24.844c4.308 0 8.055 0.207 11.271 0.632s6.060 1.165 8.534 2.204c3.955 1.725 7.108 4.425 9.428 8.065 2.321 3.649 3.504 7.74 3.504 12.291-0.009 9.844-5.346 16.473-16.039 19.86zM321.651 210.892h13.357c5.997 0 10.458-0.668 13.375-2.032 2.917-1.337 4.371-4.073 4.371-8.182 0-1.906-0.461-3.649-1.382-5.202-1.183-2.185-2.89-3.666-5.12-4.443s-5.409-1.165-9.519-1.165h-15.082v21.024zM339.344 154.32h-17.692v23.724h17.132c5.735 0 10.034-0.921 12.923-2.772 2.872-1.851 4.326-4.832 4.326-8.923 0.009-8.019-5.554-12.029-16.69-12.029z" />
<glyph unicode="&#xe62d;" glyph-name="fx-menu-index-exposures" d="M285.382 261.827c0-17.567-14.24-31.808-31.808-31.808s-31.808 14.24-31.808 31.808c0 17.567 14.24 31.808 31.808 31.808s31.808-14.24 31.808-31.808zM458.382 360.528h-18.18v23.968c0 14.45-11.723 26.154-26.154 26.154h-211.147v10.205c0 8.679-6.999 15.705-15.696 15.705h-138.419c-8.679 0-15.714-7.026-15.714-15.705v-372.271c0-8.679 7.035-15.714 15.714-15.714h409.596c8.679 0 15.714 7.035 15.714 15.714v296.229c0 8.679-7.035 15.714-15.714 15.714zM319.168 214.63l-65.602-132.541-65.566 132.531h0.054c-6.43 11.136-10.196 24.050-10.196 37.85 0 41.814 33.912 75.717 75.735 75.717 41.814 0 75.726-33.903 75.726-75.717 0-13.799-3.757-26.714-10.232-37.84h0.082zM420.118 360.528v0h-217.216v32.999h217.225v-32.999z" />
<glyph unicode="&#xe62e;" glyph-name="fx-menu-index-market" d="M273.443 356.563c-7.306 0-13.231-5.924-13.231-13.221v-129.118c0-2.791 0.867-5.373 2.348-7.478 2.817-5.969 8.868-10.133 15.913-10.133h83.8c9.753 0 17.637 7.902 17.637 17.611 0 9.736-7.884 17.629-17.637 17.629h-75.618v111.489c0 7.297-5.906 13.221-13.212 13.221zM416.442 370.137c-36.865 36.865-85.885 57.167-138.023 57.167h-0.018c-52.127 0-101.166-20.302-138.031-57.167-31.166-31.175-50.322-71.075-55.541-114.18h-43.783c-0.063 0-0.117 0-0.181 0.009-7.532-0.009-13.646-6.114-13.646-13.646 0.009-3.721 1.49-7.089 3.901-9.546l63.688-87.683c2.574-3.567 6.683-5.635 11.063-5.635 4.362 0 8.471 2.068 11.045 5.618l64.816 89.218c3.017 4.155 3.459 9.627 1.12 14.215-2.33 4.57-7.008 7.423-12.156 7.433l-40.287-0.009c4.931 31.013 19.281 59.624 41.895 82.219 28.349 28.339 66.036 43.945 106.106 43.945 0.018 0 0.018 0 0.018 0 40.080 0 77.749-15.615 106.097-43.945 28.331-28.349 43.937-66.036 43.937-106.106 0-5.825-0.406-11.514-1.057-17.159h-0.18c-2.276-20.293-10.232-39.709-20.762-57.944-25.594-44.325-70.551-70.578-118.072-74.435-1.661-0.118-3.296-0.19-4.976-0.235-27.716-1.318-56.129 4.877-81.903 19.76-10.801 6.223-24.628 2.538-30.841-8.272-6.232-10.774-2.529-24.61 8.263-30.832 30.887-17.837 64.653-26.046 97.987-25.901 0.497-0.054 0.966-0.171 1.481-0.171 107.65 0.018 195.207 87.575 195.207 195.207 0 52.173-20.302 101.202-57.167 138.077z" />
<glyph unicode="&#xe62f;" glyph-name="fx-menu-index-portfolio-filters" d="M481.709 350.341c0 29.631-99.261 66.297-221.596 66.297s-221.596-36.666-221.596-66.297c0-0.56 0.316-1.057 0.407-1.644h-0.407c0-52.118 143.369-174.201 169.469-226.337v-92.289c0-14.377 23.363-26.055 52.127-26.055s52.118 11.677 52.118 26.055v92.289c26.109 52.137 169.477 174.219 169.477 226.337h-0.416c0.099 0.587 0.416 1.084 0.416 1.644zM262.038 297.003c-107.353 0-194.72 22.361-194.72 49.771s87.367 55.342 194.72 55.342c107.361 0 194.728-27.933 194.728-55.342s-87.376-49.771-194.728-49.771z" />
<glyph unicode="&#xe630;" glyph-name="fx-menu-index-portfolio" d="M418.401 423.592h-44.613v-31.347h28.962v-370.031h-236.732v370.031h69.657v31.347h-107.262c-0.334 0-0.632-0.072-0.957-0.099-0.216 0.018-0.433 0.082-0.65 0.082-0.189 0.018-0.975 0.027-1.174 0.027-20.175 0-40.576-10.675-40.576-34.517v-363.709c0-23.842 20.401-34.517 40.577-34.517 0.198 0 0.984 0.009 1.174 0.018 0.216 0 0.415 0.063 0.614 0.082 0.334-0.018 0.65-0.099 0.984-0.099h289.989c8.661 0 15.687 7.017 15.687 15.678v401.387c0.009 8.661-7.017 15.669-15.678 15.669zM258.705 176.862c0.767-0.307 1.572-0.416 2.366-0.452 0.082 0 0.163-0.054 0.244-0.054 0.171 0 0.28 0.082 0.442 0.091 0.578 0.018 1.174 0.154 1.716 0.325 0.235 0.072 0.452 0.154 0.65 0.244 0.74 0.325 1.445 0.74 2.032 1.337l38.563 38.517 38.608-38.517c0.578-0.587 1.274-1.012 1.996-1.337 0.235-0.091 0.452-0.171 0.687-0.244 0.542-0.18 1.102-0.307 1.698-0.325 0.154-0.009 0.28-0.091 0.452-0.091 0.082 0 0.163 0.054 0.244 0.054 0.804 0.036 1.608 0.144 2.357 0.452 0.858 0.37 1.608 0.867 2.212 1.49 1.274 1.247 2.014 2.981 2.014 4.822v252.681c0 1.825-0.704 3.568-1.996 4.85-1.283 1.282-3.017 1.987-4.813 1.987h-86.852c-0.65 0-1.255-0.207-1.861-0.37-0.262-0.063-0.551-0.063-0.786-0.144-2.447-1.038-4.181-3.468-4.181-6.303v-252.708c-0.009-2.745 1.671-5.229 4.208-6.303z" />
<glyph unicode="&#xe631;" glyph-name="fx-menu-index-release" d="M306.245 212.057c0.452 1.652-0.072 3.414-1.337 4.551l-76.701 68.907c-0.849 0.759-1.933 1.156-3.017 1.156-0.75 0-1.499-0.19-2.185-0.56-1.689-0.939-2.592-2.827-2.258-4.723l17.52-100.435c0.28-1.661 1.481-3.026 3.089-3.531 0.442-0.144 0.903-0.207 1.355-0.207 1.183 0 2.339 0.461 3.188 1.327l14.305 14.324 18.324-32.214c0.614-1.093 1.68-1.878 2.89-2.168 0.343-0.082 0.687-0.118 1.029-0.118 0.894 0 1.77 0.262 2.519 0.776l19.426 13.113c1.029 0.695 1.725 1.779 1.933 3.007 0.199 1.228-0.108 2.474-0.858 3.468l-20.175 26.632 17.466 3.45c1.689 0.334 3.026 1.589 3.486 3.242zM82.861 342.212h351.807v-220.593h31.347v236.254c0 8.661-7.017 15.678-15.669 15.678h-383.154c-8.661 0-15.678-7.017-15.678-15.678v-236.254h31.356v220.594zM283.043 95.149v-5.952c0-4.705-3.82-8.507-8.517-8.507h-31.518c-4.705 0-8.517 3.811-8.517 8.507v5.952h-201.042v-28.548c0-8.661 7.017-15.669 15.669-15.669h419.277c8.661 0 15.678 7.008 15.678 15.669v28.548h-201.032z" />
<glyph unicode="&#xe632;" glyph-name="fx-menu-index-reporting" d="M368.523 328.693v41.634c0 4.19-1.698 8.219-4.687 11.154l-65.692 64.762c-2.926 2.89-6.89 4.506-11 4.506h-260.077c-8.661 0-15.651-7.017-15.651-15.669v-419.269c0-8.661 6.99-15.678 15.651-15.678h325.769c8.679 0 15.678 7.017 15.678 15.678v28.737c71.029 8.372 126.327 68.835 126.327 142.068s-55.288 133.714-126.318 142.077zM337.176 31.498h-294.432v387.931h234.998v-49.238c0-5.193 4.209-9.401 9.401-9.401h50.023v-31.753c-48.37-4.895-89.697-34.011-111.678-74.967h-128.838c-3.459 0-6.276-2.817-6.276-6.268 0-3.468 2.817-6.268 6.276-6.268h122.868c-6.313-15.154-9.97-31.645-10.693-48.885h-112.781c-3.134 0-5.68-2.817-5.68-6.276s2.547-6.25 5.68-6.25h112.807c0.776-17.032 4.389-33.315 10.638-48.308h-122.841c-3.459 0-6.276-2.817-6.276-6.267s2.817-6.259 6.276-6.259h128.792c21.99-41.019 63.326-70.171 111.733-75.067v-12.725zM351.689 73.863c-62.17 0-112.753 50.601-112.753 112.762s50.601 112.762 112.753 112.762c62.179 0 112.753-50.592 112.753-112.762s-50.574-112.762-112.753-112.762zM316.775 160.425h-24.339c-2.041 0-3.685-1.652-3.685-3.685v-23.399c0-2.050 1.661-3.693 3.685-3.693h24.339c2.032 0 3.685 1.661 3.685 3.693v23.399c0 2.032-1.652 3.685-3.685 3.685zM363.556 190.048h-24.32c-2.050 0-3.675-1.661-3.675-3.702v-53.004c0-2.050 1.644-3.693 3.675-3.693h24.32c2.050 0 3.702 1.661 3.702 3.693v53.004c0 2.041-1.671 3.702-3.702 3.702zM410.355 241.245h-24.33c-2.041 0-3.693-1.653-3.693-3.694v-104.21c0-2.050 1.671-3.693 3.693-3.693h24.33c2.032 0 3.685 1.661 3.685 3.693v104.21c0 2.041-1.652 3.694-3.685 3.694z" />
<glyph unicode="&#xe633;" glyph-name="fx-menu-index-risks" d="M306.19 99.818l-8.598-17.62c46.194-5.852 74.109-20.636 74.109-31.572 0-13.935-45.056-34.164-115.652-34.164s-115.625 20.23-115.625 34.164c0 12.933 38.906 31.257 101.004 33.813l14.585-29.495 100.281 202.558h-0.118c9.889 17.051 15.633 36.775 15.633 57.872 0 63.913-51.839 115.733-115.743 115.733-63.913 0-115.751-51.82-115.751-115.733 0-21.096 5.753-40.829 15.588-57.872h-0.082l76.638-154.91c-58.142-3.757-110.64-21.449-110.64-51.965 0-34.644 67.526-52.76 134.229-52.76s134.238 18.116 134.238 52.76c0.009 25.775-37.434 42.383-84.098 49.192zM207.445 329.632c0 26.858 21.765 48.642 48.615 48.642 26.885 0 48.642-21.783 48.642-48.642 0-26.84-21.756-48.606-48.642-48.606-26.85 0-48.614 21.765-48.614 48.606z" />
<glyph unicode="&#xe634;" glyph-name="fx-menu-index-templates" d="M348.122 77.818h-185.3c-3.468 0-6.258-2.808-6.258-6.267 0-3.468 2.799-6.276 6.258-6.276h185.3c3.468 0 6.259 2.808 6.259 6.276 0.009 3.459-2.791 6.267-6.259 6.267zM348.122 130.18h-185.3c-3.468 0-6.258-2.808-6.258-6.267s2.799-6.267 6.258-6.267h185.3c3.468 0 6.259 2.808 6.259 6.267s-2.791 6.267-6.259 6.267zM348.122 181.992h-185.3c-3.468 0-6.258-2.817-6.258-6.276s2.799-6.267 6.258-6.267h185.3c3.468 0 6.259 2.808 6.259 6.267 0.009 3.459-2.791 6.276-6.259 6.276zM162.821 221.81h50.963c3.495 0 6.276 2.809 6.276 6.268s-2.791 6.268-6.276 6.268h-50.963c-3.468 0-6.258-2.809-6.258-6.268s2.791-6.268 6.258-6.268zM162.821 268.356h50.963c3.495 0 6.276 2.808 6.276 6.268s-2.791 6.267-6.276 6.267h-50.963c-3.468 0-6.258-2.809-6.258-6.267 0-3.45 2.791-6.268 6.258-6.268zM162.821 320.168h50.963c3.495 0 6.276 2.808 6.276 6.267 0 3.468-2.791 6.276-6.276 6.276h-50.963c-3.468 0-6.258-2.808-6.258-6.276s2.791-6.267 6.258-6.267zM430.015 370.832l-65.683 64.762c-2.944 2.89-6.9 4.507-11.009 4.507h-260.077c-8.67 0-15.669-7.017-15.669-15.669v-419.278c0-8.661 6.999-15.678 15.669-15.678h325.779c8.643 0 15.66 7.017 15.66 15.678v354.525c0 4.19-1.671 8.209-4.669 11.154zM403.338 20.832h-294.423v387.931h234.998v-49.238c0-5.193 4.217-9.392 9.411-9.392h50.014v-329.301zM353.55 331.457c-0.397 0.28-0.786 0.596-1.238 0.776-0.505 0.199-1.038 0.253-1.563 0.316-0.262 0.036-0.505 0.163-0.767 0.163h-93.86c-0.262 0-0.488-0.126-0.75-0.154-0.533-0.072-1.075-0.118-1.581-0.325-0.452-0.18-0.822-0.488-1.21-0.758-0.262-0.19-0.56-0.28-0.776-0.497-0.027-0.018-0.027-0.045-0.045-0.063-0.406-0.397-0.686-0.885-0.958-1.373-0.136-0.216-0.334-0.406-0.434-0.632-0.090-0.199-0.072-0.434-0.154-0.641-0.172-0.578-0.334-1.156-0.352-1.743 0-0.027 0-0.045 0-0.072v-98.358c0-0.018 0-0.045 0-0.063 0.018-0.596 0.19-1.165 0.352-1.743 0.063-0.216 0.063-0.452 0.154-0.66 0.1-0.226 0.28-0.406 0.424-0.623 0.28-0.496 0.56-0.984 0.966-1.382 0.018-0.018 0.018-0.045 0.045-0.063 0.271-0.262 0.614-0.397 0.921-0.596 0.352-0.226 0.65-0.505 1.038-0.659 0.75-0.307 1.554-0.478 2.357-0.478h93.869c0.786 0 1.589 0.171 2.357 0.478 0.389 0.154 0.687 0.433 1.038 0.659 0.298 0.199 0.65 0.334 0.921 0.596 0.018 0.018 0.027 0.036 0.045 0.063 0.406 0.398 0.668 0.894 0.966 1.382 0.127 0.216 0.325 0.388 0.425 0.623 0.082 0.198 0.082 0.442 0.135 0.66 0.18 0.569 0.352 1.147 0.352 1.743 0 0.018 0.018 0.045 0.018 0.063v98.34c0 0.027-0.018 0.045-0.018 0.072 0 0.596-0.18 1.165-0.352 1.743-0.072 0.207-0.054 0.442-0.135 0.641-0.099 0.226-0.298 0.416-0.433 0.632-0.289 0.487-0.56 0.984-0.957 1.372-0.018 0.018-0.027 0.045-0.045 0.063-0.216 0.226-0.524 0.316-0.759 0.497zM303.048 286.337l-32.259 33.831h64.536l-32.277-33.831zM294.387 277.252l-31.988-33.524v67.056l31.988-33.533zM303.048 268.175l32.268-33.831h-64.536l32.268 33.831zM311.7 277.252l32.006 33.532v-67.056l-32.006 33.524z" />
<glyph unicode="&#xe635;" glyph-name="fx-menu-internals" d="M214.651 397.772c0-2.799 2.267-5.058 5.048-5.058 0.027 0 0.063 0 0.090 0.009 1.048-13.303 12.156-23.77 25.73-23.77 13.583 0 24.691 10.476 25.738 23.77 0.036-0.009 0.054-0.009 0.091-0.009 2.791 0 5.048 2.258 5.048 5.058 0 2.050-1.228 3.82-2.99 4.606 1.021 2.981 1.572 6.178 1.572 9.519 0 16.274-13.176 29.459-29.459 29.459-16.265 0-29.459-13.185-29.459-29.459 0-3.332 0.56-6.529 1.581-9.519-1.77-0.786-2.989-2.556-2.989-4.606zM316.188 291.43c0 35.239-18.433 59.849-44.813 59.849h-16.581c0.325-0.244 0.641-0.488 0.948-0.786 2.817-2.719-0.696-11.939-2.971-17.060-4.516 0.831-9.175 0.768-13.7-0.163-2.258 5.085-5.879 14.477-3.035 17.223 0.316 0.298 0.632 0.542 0.958 0.786h-17.222c-26.389 0-44.821-24.619-44.821-59.777-0.045-2.719-1.201-66.93 4.226-94.574 3.982-20.293 11.262-26.19 16.626-27.599l7.125-176.594c0.1-2.221 1.923-3.983 4.145-3.983h24.239c2.213 0 4.037 1.734 4.145 3.947l7.279 149.799 2.827 3.251 2.845-3.251 7.279-149.799c0.108-2.204 1.924-3.947 4.136-3.947h24.248c2.221 0 4.037 1.752 4.136 3.983l7.135 176.576c5.193 1.283 13.212 6.8 16.644 27.752 4.534 27.708 4.217 91.683 4.2 94.366zM246.242 235.113l-11.416 14.233 5.734 75.256c3.531 0.632 7.125 0.687 10.648 0.154l0.126-1.58 2.781-36.387 2.854-37.443-10.729-14.233zM331.171 155.612h-19.119c-3.477 0-6.286-2.817-6.286-6.295v-89.589c0-3.477 2.808-6.295 6.286-6.295h19.119c3.486 0 6.303 2.817 6.303 6.295v89.589c0 3.468-2.817 6.295-6.303 6.295z" />
<glyph unicode="&#xe636;" glyph-name="fx-menu-page-download" d="M429.239 369.026l-65.701 64.762c-2.926 2.89-6.882 4.506-11 4.506h-260.077c-8.661 0-15.669-7.017-15.669-15.669v-419.277c0-8.661 7.008-15.678 15.669-15.678h325.76c8.679 0 15.687 7.017 15.687 15.678v354.525c0.009 4.19-1.689 8.209-4.669 11.154zM402.57 19.026h-294.441v387.931h234.998v-49.238c0-5.193 4.2-9.392 9.401-9.392h50.033v-329.301zM346.207 190.996c-2.041 4.064-6.231 6.62-10.783 6.62l-41.163-0.018-11.514 109.349c0 15.615-12.652 28.267-28.286 28.267-15.615 0-28.258-12.643-28.258-28.267l-11.532-109.331-41.163-0.018c-1.030 0-2.023-0.154-2.981-0.397-0.271-0.063-0.533-0.163-0.776-0.235-0.74-0.253-1.463-0.569-2.131-0.939-0.198-0.118-0.406-0.199-0.596-0.325-0.74-0.478-1.454-1.012-2.077-1.635-0.063-0.045-0.082-0.099-0.136-0.171-0.813-0.84-1.536-1.815-2.095-2.899-2.068-4.046-1.698-8.923 0.984-12.608l80.936-99.92c2.294-3.134 5.942-4.994 9.808-4.994 3.902 0 7.532 1.861 9.799 4.994l80.973 99.92c1.644 2.258 2.312 4.94 2.185 7.632v0c-0.036 0.813-0.108 1.608-0.316 2.393-0.163 0.903-0.452 1.761-0.876 2.583z" />
<glyph unicode="&#xe637;" glyph-name="fx-menu-page-settings" d="M3753.153-20436.879l-55.406 200.644c-1.834 6.665-7.902 11.289-14.838 11.289h-141.905c-6.918 0-12.986-4.624-14.838-11.289l-55.387-200.644c-1.291-4.624-0.334-9.591 2.574-13.402 2.908-3.829 7.441-6.078 12.237-6.078h173.659v-54.376c-4.308-2.249-7.27-6.692-7.27-11.885 0-7.406 5.997-13.411 13.42-13.411 7.405 0 13.42 6.005 13.42 13.411 0 5.193-2.962 9.636-7.27 11.885v54.376h66.749c4.796 0 9.329 2.249 12.237 6.078 2.935 3.811 3.892 8.787 2.619 13.402zM3692.139-20632.032h-64.789v157.421h-30.778v-157.421h-62.017c-8.48 0-15.38-6.891-15.38-15.38 0-8.499 6.9-15.398 15.38-15.398h157.584c8.499 0 15.38 6.9 15.38 15.398 0 8.489-6.872 15.38-15.38 15.38zM462.5 342.095l-26 6.854c-1.354 4.326-3.143 8.48-5.22 12.445l13.583 23.31c4.308 7.993 6.159 16.174 0 22.352-6.178 6.187-14.865 4.209-22.37-0.009l-23.671-13.782c-3.793 1.96-7.776 3.622-11.939 4.895l-6.981 26.551c-2.628 8.697-7.089 15.796-15.822 15.796s-13.474-7.541-15.805-15.796l-7.144-27.12c-3.865-1.283-7.568-2.845-11.144-4.714l-24.32 14.17c-7.993 4.317-16.175 6.195-22.352 0-6.178-6.168-4.2-14.847 0-22.352l14.396-24.682c-1.725-3.414-3.224-6.945-4.407-10.648l-27.635-7.27c-8.697-2.619-15.814-7.081-15.814-15.832 0-8.724 7.541-13.475 15.814-15.796l27.617-7.288c1.201-3.675 2.7-7.225 4.425-10.656l-14.396-24.646c-4.308-8.019-6.178-16.202 0-22.379s14.856-4.181 22.352 0l24.32 14.179c3.567-1.87 7.288-3.432 11.144-4.724l7.144-27.094c2.61-8.715 7.072-15.822 15.805-15.822s13.474 7.55 15.822 15.822l6.981 26.524c4.163 1.31 8.146 2.953 11.957 4.904l23.652-13.791c8.010-4.308 16.193-6.178 22.37 0s4.181 14.883 0 22.361l-13.583 23.291c2.095 3.964 3.865 8.119 5.238 12.463l25.983 6.864c8.697 2.61 15.822 7.063 15.822 15.804 0 8.733-7.55 13.475-15.822 15.813zM364.82 295.206c-17.159 0-31.076 13.908-31.076 31.058 0 17.159 13.917 31.094 31.076 31.094s31.076-13.935 31.076-31.094c0-17.15-13.917-31.058-31.076-31.058zM315.917 160.308l-26.389 6.954c-0.776 3.721-1.779 7.351-2.944 10.937l19.38 19.227c6.24 6.611 10.178 14.043 5.807 21.594-4.371 7.568-13.267 7.902-21.611 5.789l-26.434-7.198c-2.502 2.772-5.139 5.418-7.921 7.921l7.207 26.452c2.077 8.824 1.761 17.232-5.807 21.575-7.559 4.371-15.425 0.216-21.594-5.78l-19.227-19.381c-3.567 1.156-7.207 2.149-10.928 2.926l-6.963 26.407c-2.61 8.679-7.072 15.796-15.804 15.796-8.724 0-13.465-7.532-15.804-15.796l-6.954-26.407c-3.721-0.776-7.351-1.77-10.936-2.926l-19.191 19.371c-6.62 6.222-14.034 10.151-21.602 5.78-7.568-4.335-7.902-13.257-5.798-21.575l7.225-26.452c-2.79-2.502-5.436-5.13-7.939-7.921l-26.443 7.198c-8.841 2.095-17.231 1.779-21.593-5.789-4.371-7.55-0.208-15.434 5.78-21.594l19.381-19.227c-1.156-3.577-2.15-7.216-2.935-10.937l-26.38-6.954c-8.697-2.61-15.813-7.072-15.813-15.822 0-8.715 7.541-13.457 15.813-15.786l26.38-6.963c0.785-3.721 1.779-7.351 2.935-10.918l-19.38-19.227c-6.231-6.611-10.151-14.062-5.78-21.611 4.353-7.568 13.257-7.902 21.594-5.771l26.443 7.18c2.502-2.772 5.147-5.418 7.93-7.902l-7.216-26.461c-2.077-8.841-1.77-17.231 5.789-21.594 7.577-4.371 15.443-0.207 21.602 5.789l19.227 19.38c3.577-1.165 7.216-2.149 10.936-2.944l6.954-26.371c2.61-8.715 7.081-15.822 15.804-15.822 8.733 0 13.475 7.55 15.804 15.822l6.963 26.371c3.721 0.795 7.369 1.779 10.936 2.944l19.218-19.372c6.611-6.259 14.043-10.178 21.603-5.807 7.568 4.353 7.893 13.267 5.798 21.594l-7.207 26.479c2.781 2.466 5.418 5.13 7.921 7.884l26.434-7.18c8.851-2.095 17.231-1.779 21.611 5.771s0.19 15.452-5.807 21.611l-19.38 19.227c1.165 3.567 2.168 7.198 2.944 10.918l26.389 6.963c8.697 2.592 15.805 7.072 15.805 15.786-0.027 8.76-7.559 13.493-15.832 15.841zM182.708 99.349c-24.926 0-45.147 20.212-45.147 45.137 0 24.944 20.22 45.156 45.147 45.156 24.944 0 45.155-20.212 45.155-45.156 0-24.926-20.212-45.137-45.156-45.137z" />
<glyph unicode="&#xe638;" glyph-name="fx-menu-page-users" d="M509.178 82.402c-56.341 21.788-118.892 38.651-124.139 55.514v29.242c56.267 0.147 78.589 18.337 78.589 18.337-23.471 13.329-30.904 106.513-30.904 106.513 0 28.541-12.024 54.082-30.914 71.52-7.12 8.249-16.885 14.469-29.471 18.171-9.44 3.524-19.561 5.521-30.141 5.521-11.26 0-21.966-2.258-31.898-6.2-10.193-3.366-18.536-8.468-25.050-15.044-0.586-0.502-1.098-1.066-1.673-1.589 5.625-13.205 8.656-28.447 8.656-45.624v-34.856c4.61-8.5 7.077-18.045 7.077-27.685 0-15.4-6.022-29.994-16.498-40.731-5.322-16.048-12.734-30.591-21.902-42.947 1.014-0.815 2.133-1.683 3.346-2.592 9.827-1.631 21.432-2.75 35.076-2.792v-18.777c20.627-11.218 46.817-23.68 75.556-34.793 15.609-5.991 26.084-21.317 26.084-38.118v-47.945c0-4.81-0.983-9.357-2.498-13.644h106.282c6.848 0 12.399 5.635 12.399 12.567v44.213c0 5.217-3.178 9.911-7.976 11.741zM365.122 88.215c-6.409 2.478-12.89 5.123-19.373 7.862-0.648 0.272-1.286 0.533-1.923 0.805-6.283 2.676-12.546 5.447-18.735 8.29-0.7 0.325-1.421 0.648-2.123 0.983-6.231 2.875-12.358 5.834-18.317 8.803-0.491 0.24-0.983 0.491-1.485 0.742-6.105 3.063-12.055 6.159-17.711 9.252-29.587 16.142-51.845 32.002-55.002 42.112v11.522c0.272 0.283 0.512 0.638 0.785 0.93v0c0.042 0.042 0.073 0.104 0.125 0.147 6.085 6.42 11.553 13.978 16.204 22.541 0.334 0.627 0.596 1.328 0.93 1.966 1.935 3.732 3.827 7.559 5.457 11.625 1.935 4.81 3.649 9.817 5.092 15.034 7.862 5.51 13.058 14.825 13.058 25.395 0 7.507-2.738 14.302-7.077 19.644v42.907c0 3.324-0.188 6.555-0.471 9.723-0.021 0.262-0.063 0.513-0.084 0.764-3.743 38.525-28.698 64.15-80.522 64.15-54.919 0-81.076-30.318-81.076-74.636v-42.906c-4.339-5.332-7.056-12.127-7.056-19.635 0-10.56 5.175-19.843 13.037-25.395 5.917-21.181 15.922-39.268 28.593-52.242v-11.522c-5.677-18.244-73.538-55.211-134.647-78.849-5.206-2.007-8.656-7.089-8.656-12.755v-47.945c0-7.527 6.032-13.644 13.445-13.644h352.701c7.433 0 13.455 6.116 13.455 13.644v47.945c0.031 5.656-3.418 10.748-8.625 12.745z" />
<glyph unicode="&#xe639;" glyph-name="fx-menu-tr-reports" d="M368.523 328.693v41.634c0 4.19-1.698 8.219-4.687 11.154l-65.692 64.762c-2.926 2.89-6.89 4.506-11 4.506h-260.077c-8.661 0-15.651-7.017-15.651-15.669v-419.269c0-8.661 6.99-15.678 15.651-15.678h325.769c8.679 0 15.678 7.017 15.678 15.678v28.737c71.029 8.372 126.327 68.835 126.327 142.068s-55.288 133.714-126.318 142.077zM337.176 31.498h-294.432v387.931h234.998v-49.238c0-5.193 4.209-9.401 9.401-9.401h50.023v-31.753c-48.37-4.895-89.697-34.011-111.678-74.967h-128.838c-3.459 0-6.276-2.817-6.276-6.268 0-3.468 2.817-6.268 6.276-6.268h122.868c-6.313-15.154-9.97-31.645-10.693-48.885h-112.781c-3.134 0-5.68-2.817-5.68-6.276s2.547-6.25 5.68-6.25h112.807c0.776-17.032 4.389-33.315 10.638-48.308h-122.841c-3.459 0-6.276-2.817-6.276-6.267s2.817-6.259 6.276-6.259h128.792c21.99-41.019 63.326-70.171 111.733-75.067v-12.725zM351.689 73.863c-62.17 0-112.753 50.601-112.753 112.762s50.601 112.762 112.753 112.762c62.179 0 112.753-50.592 112.753-112.762s-50.574-112.762-112.753-112.762zM316.775 160.425h-24.339c-2.041 0-3.685-1.652-3.685-3.685v-23.399c0-2.050 1.661-3.693 3.685-3.693h24.339c2.032 0 3.685 1.661 3.685 3.693v23.399c0 2.032-1.652 3.685-3.685 3.685zM363.556 190.048h-24.32c-2.050 0-3.675-1.661-3.675-3.702v-53.004c0-2.050 1.644-3.693 3.675-3.693h24.32c2.050 0 3.702 1.661 3.702 3.693v53.004c0 2.041-1.671 3.702-3.702 3.702zM410.355 241.245h-24.33c-2.041 0-3.693-1.653-3.693-3.694v-104.21c0-2.050 1.671-3.693 3.693-3.693h24.33c2.032 0 3.685 1.661 3.685 3.693v104.21c0 2.041-1.652 3.694-3.685 3.694z" />
<glyph unicode="&#xe63a;" glyph-name="fx-menu-uploadOperations" d="M203.679 48.269l-17.855-54.43c0-3.974 3.956-7.198 8.823-7.198h117.422c4.868 0 8.824 3.215 8.824 7.198l-17.873 54.43h-99.342zM445.613 375.077h-134.112l3.269-31.058h124.25v-232.497h-372.903v232.497h121.73l3.279 31.058h-130.039c-17.692 0-32.033-14.341-32.033-32.025v-240.625c0-17.692 14.342-32.034 32.033-32.034h384.526c17.71 0 32.051 14.341 32.051 32.034v240.633c0 17.683-14.341 32.015-32.051 32.015zM168.050 299.432c-1.048 0-2.068-0.172-3.053-0.425-0.289-0.063-0.551-0.154-0.813-0.235-0.768-0.262-1.508-0.587-2.185-0.976-0.216-0.127-0.424-0.208-0.614-0.334-0.768-0.496-1.49-1.038-2.131-1.68-0.054-0.054-0.090-0.108-0.136-0.171-0.849-0.867-1.589-1.87-2.159-2.981-2.123-4.163-1.743-9.185 1.020-12.969l83.249-102.765c2.348-3.224 6.114-5.13 10.088-5.13 3.992 0 7.731 1.906 10.070 5.13l83.276 102.765c1.68 2.312 2.366 5.076 2.24 7.848v0.009c-0.036 0.831-0.118 1.653-0.316 2.466-0.199 0.921-0.488 1.797-0.93 2.655-2.095 4.173-6.412 6.801-11.081 6.801l-42.338-0.009-11.849 112.464c0 16.058-13.023 29.071-29.080 29.071-16.048 0-29.062-13.005-29.062-29.071l-11.858-112.446-42.338-0.018z" />
<glyph unicode="&#xe63b;" glyph-name="fx-product-forward" d="M27.093 452.906v-451.555h451.564v451.555h-451.564zM341.511 312.681h-125.063v-61.204h107.957v-43.747h-107.957v-109.89h-52.209v258.587h177.28v-43.746z" />
</font>
</defs>
</svg>
